<svg enable-background="new 0 0 1012 289" viewBox="0 0 1012 289" xmlns="http://www.w3.org/2000/svg"><g fill="#f0ecf5" opacity=".5"><path d="m36.2 67.7c0-5.6-1.7-11.4-6-15.2-3.6-3.1-8.6-3.1-12.3 0-1.9 1.6-3.4 3.7-4.4 6.4-1.1 2.7-1.6 5.6-1.6 8.8zm-24.4-39.7c0 5.6 1.7 11.4 6 15.2 3.6 3.1 8.6 3.1 12.3 0 1.9-1.6 3.4-3.7 4.4-6.4 1.1-2.7 1.6-5.6 1.6-8.8zm29 0c0 4-.8 7.8-2.3 11.2-1.7 3.8-4 6.7-7 8.6 3 1.9 5.3 4.8 7 8.6 1.5 3.5 2.3 7.2 2.3 11.2h.4c.6 0 1.1.5 1.1 1.1v2.3c0 .6-.5 1.1-1.1 1.1h-34.4c-.6 0-1.1-.5-1.1-1.1v-2.3c0-.6.5-1.1 1.1-1.1h.4c0-4 .8-7.8 2.3-11.2 1.7-3.8 4-6.7 7-8.6-3-1.9-5.3-4.8-7-8.6-1.5-3.4-2.3-7.2-2.3-11.2h-.4c-.6 0-1.1-.5-1.1-1.1v-2.3c0-.6.5-1.1 1.1-1.1h34.3c.6 0 1.1.5 1.1 1.1v2.3c0 .6-.5 1.1-1.1 1.1z"/><path d="m92.8 54c-.4 0-.7-.3-.7-.7v-1.5c0-.4.3-.7.7-.7h10.7c.4 0 .8.4.8.8v1.5c0 .4-.3.7-.7.7zm0-6.1c-.4 0-.7-.3-.7-.7v-1.5c0-.4.3-.7.7-.7h10.7c.4 0 .7.3.7.7v1.5c0 .4-.4.8-.8.8zm0-6.1c-.4 0-.8-.4-.8-.8v-1.5c0-.4.3-.7.7-.7h10.7c.4 0 .7.3.7.7v1.5c0 .4-.4.8-.8.8zm-14.5 6.1c-5.3 0-8-6.6-4.3-10.4 2.4-2.4 6.2-2.4 8.6 0 3.8 3.7 1.1 10.4-4.3 10.4zm-8.6 12.2c-1 0-2.1-.7-2.1-1.8v-1.8c0-3.6 4.3-6.5 7.6-5.2 2 .6 4.1.6 6.1 0 3.4-1.1 7.6 1.6 7.6 5.2v1.8c0 .5-.2.9-.6 1.3-.4.3-.9.5-1.5.5zm-6.6 4.5h45.7v-33.5h-45.7zm45.7-38.1c2.5 0 4.5 2 4.5 4.5v33.6c0 1.3-.4 2.4-1.3 3.2-.9.9-2 1.3-3.2 1.3h-45.7c-2.5 0-4.5-2-4.5-4.5v-33.5c0-1.3.4-2.4 1.3-3.2.9-.9 2-1.3 3.2-1.3z"/><path d="m197.6 53c1.3 0 2.3-1 2.3-2.3h-4.6c0 .6.2 1.2.7 1.6.4.5.9.7 1.6.7zm14.9-6.9c1.7 0 2.3-1.9 1.3-3.1-2.1-2.1-3.5-4.4-4.2-7.3-1-4.3.1-9.1-2.2-13-1-1.7-2.4-3.1-4.1-4.1-5.4-3.1-12.4-1.2-15.5 4.1-2.3 3.9-1.2 8.6-2.2 12.9-.4 1.7-1 3.2-1.7 4.4-.6.8-1.4 1.8-2.5 3-.6.6-.7 1.2-.4 2 .3.7.8 1.1 1.7 1.1zm4.2-6.5c1.9 1.9 2.8 4.6 1.8 7.1-1 2.4-3.4 4-6 4h-8.9c0 1.7-.6 3.2-1.8 4.3-2.3 2.3-6.3 2.3-8.7 0-1.2-1.2-1.8-2.6-1.8-4.3h-8.9c-2.6 0-5-1.6-6-4-1-2.5-.1-5.2 1.8-7.1.7-.7 1.2-1.3 1.5-1.8.6-.9 1-2 1.2-3.2.7-3.7.1-7.6 1.4-11.3 1.1-3 3.1-5.7 5.7-7.6 2-1.5 4.3-2.4 6.9-2.8-1.5-1.9.1-4.7 2.4-4.8 2.4-.1 4 2.8 2.6 4.8 2.5.4 4.8 1.3 6.9 2.8 2 1.5 3.6 3.4 4.8 5.6 1.1 2.1 1.7 4.4 1.8 6.8.1 2.2.1 4.4.5 6.5.3 1.3.7 2.4 1.2 3.2.4.5.9 1.1 1.6 1.8z"/><path d="m305.6 41.6c3.3 0 4.1 4.7 1 5.9-3 1.1-5.5-2.7-3.2-5 .7-.6 1.4-.9 2.2-.9m-10.7 0c3.3 0 4.1 4.7 1 5.9-3 1.1-5.5-2.7-3.2-5 .7-.6 1.4-.9 2.2-.9m-10.6 0c4 0 3.8 6.3-.2 6.1-3.9-.2-3.7-6.1.2-6.1m10.6 18.3c6.4 0 13.2-2.4 17.2-7.6 3.5-4.6 3.5-10.7 0-15.2-7.8-10.3-26.5-10.3-34.3 0-3.9 5.2-3.3 11.9 1.1 16.5l1.9 2.1-1 2.7c-.5 1.3-1.1 2.6-1.9 3.9 1.9-.6 3.7-1.6 5.4-2.9l1.9-1.2 2.2.7c2.5.6 5 1 7.5 1m0-35.1c8 0 16.3 3.3 21.1 9.9 4.3 5.9 4.3 14 0 19.9-2.2 3-5.1 5.4-8.9 7.2-6.5 3.1-14.2 3.4-21.1 1.3-2.1 1.5-4.5 2.7-7 3.5-1.3.3-2.7.6-4 .8-1.1.1-2.4.4-3.4-.3-.8-.6-1.2-1.3-1-2.3.3-1.1 1.6-2.3 2.3-3.2 1.3-1.7 2.2-3.4 2.8-5-2.7-2.9-4.6-6.5-5-10.4-.4-4.1.8-8.2 3.2-11.5 4.7-6.7 13-9.9 21-9.9"/><path d="m467.6 46.5v-30.5h-30.5v4.6h21.4c1.3 0 2.4.4 3.2 1.3.9.9 1.3 2 1.3 3.2v21.4zm-39.7 9.1h30.5v-19.8h-30.5zm39.7-44.2c1.3 0 2.4.4 3.2 1.3.9.9 1.3 2 1.3 3.2v30.5c0 1.3-.4 2.4-1.3 3.2-.9.9-2 1.3-3.2 1.3h-4.6v4.6c0 1.3-.4 2.4-1.3 3.2-.9.9-2 1.3-3.2 1.3h-30.5c-1.3 0-2.4-.4-3.2-1.3-.9-.9-1.3-2-1.3-3.2v-30.4c0-2.5 2.1-4.6 4.6-4.6h4.6v-4.5c0-2.5 2.1-4.6 4.6-4.6z"/><path d="m330.4 109.5c0-.6-.5-1.1-1.1-1.1h-13c-.6 0-1.1.5-1.1 1.1v2.7c0 .5.1 1 .4 1.3.3.4.7.7 1.1.9v.9c0 1.3 1 2.3 2.3 2.3h7.6c1.3 0 2.3-1 2.3-2.3v-.9c.9-.4 1.5-1.2 1.5-2.2zm-13.7-24c0 .4-.1.8-.4 1.1-.6.6-1.6.6-2.2 0-.9-.9-.3-3 0-4.1.8-2.6 3.1-4.9 5.7-5.7 1.1-.4 3.2-.9 4.1 0 .7.7.5 1.9-.3 2.4s-1.8.2-2.6.5c-1 .3-1.8.8-2.5 1.6-1.2 1.1-1.8 2.6-1.8 4.2zm6.1-12.2c-4.3 0-8.4 2.3-10.6 6.1-1.8 3-2.3 7.4-.9 10.7.9 2.2 3 3.8 4.3 5.8 1 1.4 1.8 3 2.7 4.9h9c.8-1.8 1.7-3.5 2.7-4.9 1.3-2 3.4-3.6 4.3-5.8 1.4-3.3.9-7.6-.9-10.7-2.2-3.8-6.3-6.1-10.6-6.1zm0-4.6c3 0 5.9.7 8.4 2.2 3.4 2 6.1 5.1 7.4 8.9 1.3 3.7 1.4 8.3-.1 12-.5 1-1.4 2.4-2.8 4-1 1.3-1.8 2.4-2.4 3.2-1 1.5-1.8 3.1-2.5 4.9-.1.4-.4.8-.8 1-.4.3-.8.4-1.3.4h-12c-.5 0-1-.1-1.3-.4-.4-.3-.6-.6-.8-1-1.2-3-2.9-5.6-4.9-8.1-1.3-1.7-2.3-3-2.8-4-1.9-4.6-1.3-10.5 1.2-14.7 1.5-2.6 3.5-4.6 6.1-6.1 2.7-1.5 5.6-2.3 8.6-2.3z"/><path d="m587.5 58.1c.4 0 .8-.2 1.1-.5.9-1 .3-2.6-1.1-2.6s-2 1.6-1.1 2.6c.3.4.6.5 1.1.5zm-4.6-4.6v-12.2h-4.3l-5.8-5.9c-.2-.1-.4-.2-.6-.2h-8c-1 0-1.8.3-2.6 1l-6.2 5.7c-1 .8-.9 2.3-.1 3.2.8 1 2.4.8 3.3.1l5.2-4.9c.6-.5 1.7-.6 2.2.1l1 1.1c.5.6.6 1.6-.1 2.1l-1.2 1.1 9.8 7.9.8.8zm-10.1 4c.1-.2.2-.4.1-.6 0-.2-.1-.4-.2-.5l-10.3-8.4-.9.7c-1.1 1.1-2.4 1.7-3.9 1.8-1.1.1-2.3-.2-3.4-.7-1-.4-1.7-1-2.3-1.5-2.6-2.7-2.3-7.2.4-9.7l3.7-3.3h-5.4l-.5.2-5.9 5.9h-4v12.2h2.7l9.2 8.4c1.6 1.2 4 1.1 5.2-.6l1.5-1.8 3.5 3c.6.4 1.3.2 1.7-.3l2.9-3.4 2.3 1.8c.1.1.3.2.5.1.2 0 .4-.1.5-.2zm-37.2.6c.4 0 .8-.2 1.1-.5.5-.6.6-1.6 0-2.1-1.4-1.4-3.4.6-2.2 2.1.3.4.7.5 1.1.5zm44.9-21.3h11.5v24.4h-6c-1.6 0-3-1.4-3-3h-5.5c-.2.8-.5 1.6-1 2.2l-2.5 3c-1.5 1.9-3.8 2.5-6.1 1.7-2.2 2.7-6 3-8.6.8-1.5 1.1-3.2 1.6-5.1 1.5-1.8-.1-3.5-.7-5-1.9l-8.1-7.2h-.9c0 1.6-1.4 3-3 3h-6.1v-24.5h11.2l4.6-4.6c1-1 2.3-1.5 3.7-1.5h21.6c1.5 0 2.7.5 3.8 1.5z"/><path d="m395.3 12.1c-.6 0-1.2.2-1.6.7-.9.9-.9 2.4 0 3.2.9.9 2.4.9 3.2 0 1.4-1.4.4-3.9-1.6-3.9zm13.2 40.4c.3 0 .6-.3.6-.6v-32.4c0-.3-.3-.6-.6-.6h-4v3.4c0 .6-.5 1.1-1.1 1.1h-16c-.6 0-1.1-.5-1.1-1.1v-3.4h-4c-.3 0-.6.3-.6.6v32.4c0 .3.3.6.6.6zm.5-38.1c1.3 0 2.4.4 3.2 1.3.9.9 1.3 2 1.3 3.2v33.5c0 1.3-.4 2.4-1.3 3.2-.9.9-2 1.3-3.2 1.3h-27.5c-1.3 0-2.4-.4-3.2-1.3-.9-.9-1.3-2-1.3-3.2v-33.5c0-1.3.4-2.4 1.3-3.2.9-.9 2-1.3 3.2-1.3h7.6c0-5.3 6.6-8 10.4-4.3 1.2 1.2 1.8 2.6 1.8 4.3z"/><path d="m565.7 105.7c0-.6-.5-1.1-1.1-1.1h-13c-.6 0-1.1.5-1.1 1.1v3.8c0 .6.5 1.1 1.1 1.1h13c.6 0 1.1-.5 1.1-1.1zm-18.3 0c0-.6-.5-1.1-1.1-1.1h-6.9c-.6 0-1.1.5-1.1 1.1v3.8c0 .6.5 1.1 1.1 1.1h6.9c.6 0 1.1-.5 1.1-1.1zm31.5 9.5c.3 0 .6-.3.6-.6v-16.1h-45.7v16.2c0 .3.3.6.6.6zm-44.6-33.5c-.3 0-.6.3-.6.6v4h45.7v-4c0-.3-.3-.6-.6-.6zm45.2-4.6c2.5 0 4.5 2 4.5 4.5v33.5c0 1.3-.4 2.4-1.3 3.2-.9.9-2 1.3-3.2 1.3h-45.7c-1.3 0-2.4-.4-3.2-1.3-.9-.9-1.3-2-1.3-3.2v-33.4c0-1.3.4-2.4 1.3-3.2.9-.9 2-1.3 3.2-1.3z"/><path d="m602.5 127.3c-.4-.4-1.1-.4-1.4 0l-3 3 5.5 5.5 3-3c.4-.4.4-1.1 0-1.4zm-7.6 6.2-17.7 17.7-.7 6.2 6.2-.7 17.7-17.7zm-10.1 27.6-8.6 1c-1.3.1-2.3-.3-3.2-1.1-.9-.9-1.3-2-1.1-3.2l1-8.6 25.1-25.1c2.1-2.1 5.8-2.1 7.9 0l4.1 4.1c2.1 2.1 2.1 5.8 0 7.9zm13.1-8.8c.3-.3.5-.3.9-.2.3.1.5.4.5.8v13.8c0 1.3-.4 2.4-1.3 3.2-.9.9-2 1.3-3.2 1.3h-33.5c-2.5 0-4.5-2-4.5-4.5v-33.5c0-1.3.4-2.4 1.3-3.2.9-.9 2-1.3 3.2-1.3h26.1c.3 0 .5.2.7.5.1.3.1.6-.2.9l-3 3.1c-.1.1-.3.2-.5.2h-23.1v33.5h33.5v-10.9c0-.2.1-.4.2-.5z"/><path d="m228.1 114.9 7.2-7.2h-7.2zm7.6-33.2h-33.5v33.5h21.3v-9.9c0-1.3 1-2.3 2.3-2.3h9.9zm4.6 25.5c0 1.3-.4 2.4-1.3 3.2l-8 8c-.9.9-2 1.3-3.2 1.3h-25.5c-1.3 0-2.4-.4-3.2-1.3-.9-.9-1.3-2-1.3-3.2v-33.5c0-1.3.4-2.4 1.3-3.2.9-.9 2-1.3 3.2-1.3h33.5c1.3 0 2.4.4 3.2 1.3.9.9 1.3 2 1.3 3.2z"/><path d="m451.9 95.2c0 .6.5 1.1 1.1 1.1h9.9c.6 0 1.1-.5 1.1-1.1v-2.2c0-.6-.5-1.1-1.1-1.1h-9.9c-.6 0-1.1.5-1.1 1.1zm0-6.8c0 .6.5 1.1 1.1 1.1h9.9c.6 0 1.1-.5 1.1-1.1v-2.3c0-.6-.5-1.1-1.1-1.1h-9.9c-.6 0-1.1.5-1.1 1.1zm0-6.9c0 .6.5 1.1 1.1 1.1h9.9c.6 0 1.1-.5 1.1-1.1v-2.3c0-.6-.5-1.1-1.1-1.1h-9.9c-.6 0-1.1.5-1.1 1.1zm-14.5 4.2h7.6v-3.8h-7.6zm-3.8 9.5c0 .6.5 1.1 1.1 1.1h13c.6 0 1.1-.5 1.1-1.1v-2.2c0-.6-.5-1.1-1.1-1.1h-13c-.6 0-1.1.5-1.1 1.1zm1.1-5.7c-.6 0-1.1-.5-1.1-1.1v-9.2c0-.6.5-1.1 1.1-1.1h13c.6 0 1.1.5 1.1 1.1v9.2c0 .6-.5 1.1-1.1 1.1zm34 11.5v-27.5h-39.7v26.7l-.1.8zm-45.8-.8c0 .2.1.4.2.5.3.3.7.3 1 0 .2-.2.2-.3.2-.5v-23.6h-1.5zm48.1-31.3c.6 0 1.2.2 1.6.7.4.4.7 1 .7 1.6v32c0 1.3-1 2.3-2.3 2.3h-47.3c-1.5 0-2.7-.5-3.8-1.6-1-1-1.6-2.3-1.6-3.8v-25.8c0-.6.2-1.2.7-1.6.4-.4 1-.7 1.6-.7h4.1c.6-1.7 2.5-3.1 4.3-3.1z"/><path d="m266.2 115.8 3.5-4.8-3.5-1.4zm20.3-2.7 5.6-36.9-39.6 22.8 10.3 4.3 20.1-17.6c.8-.7 2.1-.4 2.5.6.2.5.1.9-.2 1.4l-13.3 19.3zm3.4-40.9c1.1-.6 2.2-.7 3.3-.4 2.3.6 3.8 2.8 3.4 5.1l-5.6 37c-.3 1.5-1 2.5-2.3 3.2-1.2.7-2.7.7-4 .3l-10.7-4.5-4.1 5.7c-.9 1.1-2 1.7-3.3 1.8-2.7.2-5-1.8-5-4.5v-8l-10.9-4.6c-1.1-.4-2-1.2-2.4-2.3-.5-1.1-.6-2.2-.2-3.3.3-1.1 1-2 2.1-2.6z"/><path d="m304.8 122.4c-6.9 0-13.7 3.8-17.1 9.9-3.6 6-3.6 13.9 0 19.9 5.2 8.8 16.5 12.4 25.8 7.9 2.7-1.3 5-3.1 6.8-5.4-6.9 1.2-13.7-1.5-17.7-7.3-3.7-5.4-3.9-12.8-.5-18.4 1.6-2.7 3.7-4.8 6.4-6.3-1.3-.2-2.5-.3-3.7-.3m0 44.2c-8.6 0-16.8-4.7-21.1-12.2-3.7-6.3-4.3-14.2-1.7-21 2.5-6.5 7.9-11.8 14.5-14.2 4-1.5 8.5-1.8 12.7-1.1 4.1.9 5.3 6.3 1.5 8.5-2 1.1-3.5 2.7-4.7 4.7-2.5 4.1-2.3 9.5.4 13.4 2.2 3.3 5.9 5.5 9.9 5.7 1.9.1 3.8-.7 5.6 0 1.5.6 2.6 2 2.9 3.6.2 1.3-.1 2.4-1 3.5-2.3 2.9-5.1 5.1-8.4 6.7-3.4 1.6-6.9 2.4-10.6 2.4"/><path d="m352.6 22.1c-3.3 0-4.1-4.7-1-5.9 3-1.1 5.5 2.7 3.2 5-.7.6-1.4.9-2.2.9m-15.3 0c-4 0-3.8-6.3.2-6.1 3.9.2 3.7 6.1-.2 6.1m15.7 7c1.2-1.7 3.8-.7 4 1.2.1.6-.1 1.2-.5 1.6-4.4 5.1-11.7 6.9-17.9 4-2-1-3.7-2.3-5.2-4-.4-.4-.5-1-.5-1.6.1-.6.3-1.2.8-1.6.9-.8 2.4-.7 3.2.3 1 1.1 2.2 2 3.6 2.7 2.8 1.3 6 1.3 8.8 0 1.5-.6 2.7-1.5 3.7-2.6m-8 13.6c6.8 0 13-3.8 16.5-9.6 3.4-5.8 3.4-13.2 0-19.1-1.7-2.9-4-5.2-7-7-5.8-3.4-13.2-3.4-19.1 0-2.9 1.7-5.2 4-7 7-3.4 5.8-3.4 13.2 0 19.1 1.7 2.9 4 5.2 7 7 3 1.7 6.1 2.6 9.6 2.6m0-42.7c8.2 0 16 4.5 20.2 11.5 4.2 6.9 4.4 15.9.6 23-2.1 3.9-5.2 7.2-9.1 9.5-7.2 4.2-16.4 4.2-23.6 0-6.9-4-11.4-11.4-11.7-19.4s3.5-15.8 10.1-20.3c4-2.8 8.7-4.3 13.5-4.3"/><path d="m70.6 102.8c0-4-6.3-3.8-6.1.2.2 3.9 6.1 3.7 6.1-.2zm-9.1 0c0-3.9-6.1-3.9-6.1.1 0 3.9 6.1 3.8 6.1-.1zm-23.6-21.3-7.4 10.7h40.6l-7.4-10.7zm-10 27.4h45.7v-12.2h-45.7zm49.5-15.6c.6.8.9 1.6.9 2.6v13.1c0 2.5-2.1 4.6-4.6 4.6h-45.8c-1.3 0-2.4-.4-3.2-1.3-.9-.9-1.3-2-1.3-3.2v-13.2c0-1 .3-1.8.9-2.6l10-14.4c.4-.6.9-1.1 1.6-1.5.7-.3 1.4-.5 2.1-.5h25.7c.8 0 1.5.2 2.1.5.7.3 1.2.8 1.6 1.5z"/><path d="m112.3 89.7c-.2-1.1-1-1.7-2.1-1.7-5.5.8-10.6 5.2-13.7 9.6-1.8 2.6-2.9 5.1-3.2 7.3-.3 1.7 1.9 2.8 3.1 1.7.4-.3.7-.8.7-1.3.2-1.7 1-3.5 2.6-5.6 1.4-1.9 3.1-3.7 5-5.1 1.8-1.3 3.8-2.6 6-2.9.9 0 1.7-.9 1.6-2m16.2-.8c.4-.7.3-1.5-.2-2.5-.8-1.5-2.9-3.3-4.7-2.4-1 .6-2.3 1-3.8 1-.9.1-2.4 0-4.4-.2-2.5-.2-4.4-.3-5.7-.2-2.3.2-4.4.7-6.4 1.5-5.1 2.3-9.7 6.9-12 12-.8 2-1.3 4.1-1.5 6.4-.1 1.3 0 3.2.2 5.7.2 2 .3 3.5.2 4.4-.1 1.5-.4 2.8-1 3.8-.4.7-.3 1.5.2 2.5.8 1.5 2.9 3.3 4.7 2.4 1-.6 2.3-1 3.8-1 .9-.1 2.4 0 4.4.2 2.5.2 4.4.3 5.7.2 2.3-.2 4.4-.7 6.4-1.5 5.1-2.3 9.7-6.9 12-12 .8-2 1.3-4.1 1.5-6.4.1-1.3 0-3.2-.2-5.7-.2-2-.3-3.5-.2-4.4 0-1.5.4-2.8 1-3.8m2.1-7c2.4 2.4 3.6 6.2 1.8 9.3-.9 1.4-.4 3.8-.3 5.3.3 2.7.3 4.9.3 6.5-.2 2.7-.8 5.3-1.8 7.7-2.6 6.3-8.5 11.8-14.6 14.7-2.5 1-5.1 1.6-7.8 1.8-1.6.1-3.8 0-6.5-.3-1.6-.1-3.9-.6-5.3.3-1.4.8-3 1.1-4.7.7-3.5-.7-6.4-3.6-7.1-7.1-.3-1.7-.1-3.3.7-4.7.9-1.4.4-3.7.3-5.3-.3-2.7-.3-4.9-.3-6.5.2-2.7.8-5.3 1.8-7.7 2.6-6.3 8.5-11.8 14.6-14.7 2.5-1 5.1-1.6 7.8-1.8 1.6-.1 3.7 0 6.5.3 1.6.1 3.9.6 5.3-.3 3.1-1.8 6.8-.5 9.3 1.8"/><path d="m543.3 170.2c0 .6-.5 1.1-1.1 1.1h-2.7c-.6 0-1.1-.5-1.1-1.1v-2.7c0-.6.5-1.1 1.1-1.1h2.7c.6 0 1.1.5 1.1 1.1zm0-15.6c0 .6-.5 1.1-1.1 1.1h-2.7c-.6 0-1.1-.5-1.1-1.1v-2.7c0-.6.5-1.1 1.1-1.1h2.7c.6 0 1.1.5 1.1 1.1zm-4.5 7.8c0 .6-.5 1.1-1.1 1.1h-2.7c-.6 0-1.1-.5-1.1-1.1v-2.7c0-.6.5-1.1 1.1-1.1h2.7c.6 0 1.1.5 1.1 1.1zm-4.6-7.8c0 .6-.5 1.1-1.1 1.1h-2.7c-.6 0-1.1-.5-1.1-1.1v-2.7c0-.6.5-1.1 1.1-1.1h2.7c.6 0 1.1.5 1.1 1.1zm-4.6 7.8c0 .6-.5 1.1-1.1 1.1h-2.7c-.6 0-1.1-.5-1.1-1.1v-2.7c0-.6.5-1.1 1.1-1.1h2.7c.6 0 1.1.5 1.1 1.1zm-4.5-7.8c0 .6-.5 1.1-1.1 1.1h-2.7c-.6 0-1.1-.5-1.1-1.1v-2.7c0-.6.5-1.1 1.1-1.1h2.7c.6 0 1.1.5 1.1 1.1zm-4.6 7.8c0 .6-.5 1.1-1.1 1.1h-2.7c-.6 0-1.1-.5-1.1-1.1v-2.7c0-.6.5-1.1 1.1-1.1h2.7c.6 0 1.1.5 1.1 1.1zm13.5 7.3c0 .6-.5 1.1-1.1 1.1h-20.6c-.6 0-1.1-.5-1.1-1.1v-1.5c0-.6.5-1.1 1.1-1.1h20.6c.6 0 1.1.5 1.1 1.1zm-18.1-15.1c0 .6-.5 1.1-1.1 1.1h-2.7c-.6 0-1.1-.5-1.1-1.1v-2.7c0-.6.5-1.1 1.1-1.1h2.7c.6 0 1.1.5 1.1 1.1zm-4.6 7.8c0 .6-.5 1.1-1.1 1.1h-2.7c-.6 0-1.1-.5-1.1-1.1v-2.7c0-.6.5-1.1 1.1-1.1h2.7c.6 0 1.1.5 1.1 1.1zm-4.5 7.8c0 .6-.5 1.1-1.1 1.1h-2.7c-.6 0-1.1-.5-1.1-1.1v-2.7c0-.6.5-1.1 1.1-1.1h2.7c.6 0 1.1.5 1.1 1.1zm0-15.6c0 .6-.5 1.1-1.1 1.1h-2.7c-.6 0-1.1-.5-1.1-1.1v-2.7c0-.6.5-1.1 1.1-1.1h2.7c.6 0 1.1.5 1.1 1.1zm39.4 20.2v-27.4c0-.2-.1-.4-.2-.5-.2-.2-.3-.2-.5-.2h-45.7c-.2 0-.4.1-.5.2-.2.2-.2.3-.2.5v27.4c0 .2.1.4.2.5.2.2.3.2.5.2h45.7c.4 0 .7-.3.7-.7zm-.8-32c1.3 0 2.4.4 3.2 1.3.9.9 1.3 2 1.3 3.2v27.4c0 1.3-.4 2.4-1.3 3.2-.9.9-2 1.3-3.2 1.3h-45.7c-1.3 0-2.4-.4-3.2-1.3-.9-.9-1.3-2-1.3-3.2v-27.4c0-1.3.4-2.4 1.3-3.2.9-.9 2-1.3 3.2-1.3z"/><path d="m274.8 164.5c.4.2.6.5.7 1 .1.4 0 .8-.2 1.2-.4.7-1.4 1-2.1.6l-5-2.9 1.6 4.3c.3 1.3-1 2.6-2.2 1.9-.4-.2-.6-.5-.8-.9l-1.2-6.9-5.5-3.2v6.4l5.3 4.5c.6.6.5 1.5-.1 2.1-.7.6-1.7.5-2.3-.1l-2.9-3.5v5.9c0 .4-.2.8-.5 1.1-.9.9-2.8.3-2.8-1.1v-5.9l-2.9 3.5c-.6.7-1.6.7-2.2.1-.6-.5-.7-1.5-.1-2.1l5.3-4.5v-6.4l-5.5 3.2-1.2 6.9c-.2.4-.4.7-.8.9-1.3.6-2.5-.7-2.2-1.9l1.6-4.3-5 2.9c-1.7.9-3.3-1.7-1.6-2.7l5-3-4.5-.8c-.9-.2-1.3-1-1.3-1.9.1-.4.3-.8.6-1 .4-.2.8-.3 1.2-.2l6.5 2.4 6.2-3.2-6.2-3.2-6.5 2.4c-.5.1-.9 0-1.2-.2-.4-.2-.6-.6-.6-1-.2-.8.5-1.7 1.3-1.9l4.5-.8-5-3c-.7-.4-.9-1.4-.5-2.1s1.4-1 2.1-.6l5 2.9-1.6-4.3c-.3-1.3 1-2.6 2.2-1.9.4.2.6.5.8.9l1.2 6.9 5.5 3.2v-6.4l-5.3-4.5c-.6-.6-.5-1.5.1-2.1.7-.6 1.7-.6 2.2.1l2.9 3.5v-5.9c0-.4.2-.8.5-1.1.9-.9 2.8-.3 2.8 1.1v5.9l2.9-3.5c.6-.7 1.6-.7 2.2-.1s.7 1.5.1 2.1l-5.3 4.5v6.4l5.5-3.2 1.2-6.9c.9-1.7 3.5-.9 3 1l-1.6 4.3 5-2.9c.8-.4 1.6-.1 2.1.6.2.4.3.7.2 1.2-.1.4-.3.7-.7 1l-5 3 4.5.8c.9.2 1.3 1 1.3 1.9-.1.4-.3.8-.6 1-.4.2-.8.3-1.2.2l-6.5-2.4-6.2 3.2 6.2 3.2 6.5-2.4c.5-.1.9 0 1.2.2.4.2.6.5.6 1 .2.9-.4 1.7-1.2 1.9l-4.5.8z"/><path d="m501.1 51.3c3.9 0 3.8 6.1 0 6.1-4 0-4-6.1 0-6.1zm8.7-7.6c.2-.7.1-1.3-.3-1.9-.4-.5-1-.9-1.6-1-.7-.1-1.3.1-1.9.6l-9.7 9.3c-.3.3-.5.6-.7 1l-3.1 13.2c-.2.7-.1 1.3.3 1.9.9 1.1 2.4 1.3 3.5.3l9.7-9.3c.3-.3.5-.6.7-1zm-8.7 29.7c6.8 0 13-3.8 16.5-9.6 3.4-5.8 3.4-13.2 0-19.1-1.7-2.9-4-5.2-7-7-5.8-3.4-13.2-3.4-19.1 0-2.9 1.7-5.2 4-7 7-3.4 5.8-3.4 13.2 0 19.1s9.8 9.6 16.6 9.6zm0-42.7c4.3 0 8.2 1.1 11.8 3.2 5.2 3 9.2 8 10.9 13.8 1.8 6.1 1 12.9-2.3 18.5-2.1 3.6-5 6.5-8.6 8.6-11.1 6.5-25.8 2.4-32.2-8.6-3.2-5.5-4.1-12.3-2.3-18.5 1.7-5.8 5.7-10.8 10.9-13.8 3.6-2.1 7.5-3.2 11.8-3.2z"/><path d="m6.1 153.1h48.8v-27.4h-48.8zm50.3-33.6c1.3 0 2.4.4 3.2 1.3.9.9 1.3 2 1.3 3.2v30.5c0 2.5-2.1 4.6-4.6 4.6h-22.3v3.1h15.2c2.7 0 3.9 3.4 2.1 5.2-.6.6-1.3.9-2.1.9h-36.5c-3.9 0-3.9-6.1 0-6.1h15.2v-3.1h-23.3c-2.5 0-4.6-2.1-4.6-4.6v-30.5c0-1.3.4-2.4 1.3-3.2.9-.9 2-1.3 3.2-1.3z"/><path d="m117.2 165.9v-3.5c-4.4-1.6-9.2-1.6-13.6 0l.4 3.9c.1 2.5 2.4 4.4 4.9 4.4h3.5c1.3 0 2.5-.5 3.4-1.4.9-1 1.4-2.1 1.4-3.4zm-29.5.3.4-3.9c-4.4-1.6-9.2-1.6-13.6 0v3.5c0 1.3.5 2.5 1.4 3.4 1 .9 2.1 1.4 3.4 1.4h3.5c2.5 0 4.8-1.9 4.9-4.4zm35.4-8.5c.1.5.2 1 .2 1.5v6.7c0 2-.5 3.8-1.5 5.4-2 3.3-5.6 5.5-9.5 5.5h-3.5c-5.7 0-10.5-4.3-10.9-10l-.3-3.7h-3.4l-.3 3.7c-.4 5.7-5.2 10-10.9 10h-3.5c-5.9 0-11-5-11-10.9v-6.7c0-.5.1-1 .2-1.5l4.3-17.3c.3-1.1.8-2.2 1.5-3.1 1.4-1.8 3.5-3.1 5.9-3.2 1.2-.1 2.3 0 3.4.4l1.5.5c.8.2 1.2 1.2 1 1.9l-.5 1.4c-.2.8-1.2 1.2-1.9 1l-1.3-.4c-2.1-.7-4.5.3-5.1 2.6l-3.7 14.7c6.2-1.8 12.8-1.4 18.7 1.3h7.1c5.9-2.8 12.5-3.2 18.7-1.3l-3.7-14.7c-.5-2.3-2.9-3.3-5.1-2.6l-1.3.4c-.4.1-.8.1-1.1-.1-.4-.2-.6-.5-.8-.9l-.5-1.4c-.1-.4-.1-.8.1-1.1.2-.4.5-.6.9-.8l1.5-.5c4.6-1.7 9.6 1.3 10.8 5.9z"/><path d="m386.2 100.7h16.4l-4.6-7.4c-.4-.5-.6-1.1-.6-1.7v-15.3h-6.1v15.2c0 .6-.2 1.2-.6 1.7zm28.5 7.9c2.7 4.4-.5 10.4-5.7 10.4h-29.2c-5.3 0-8.4-5.9-5.7-10.4l11.2-17.9v-14.4h-.8c-.6 0-1.2-.2-1.6-.7-.4-.4-.7-1-.7-1.6v-1.5c0-1.3 1-2.3 2.3-2.3h19.8c1.3 0 2.3 1 2.3 2.3v1.5c0 .6-.2 1.2-.7 1.6-.4.4-1 .7-1.6.7h-.8v14.4z"/><path d="m235.3 46.4-10.2-10.7c-2.9-3.3-2.6-8.2.6-11.2 2.8-2.4 7.3-1.9 9.8.8l1 1.1 1-1.1c2.6-2.6 6.9-3.2 9.8-.7 3.4 2.8 3.6 8 .6 11.2l-10.2 10.7c-.7.6-1.7.6-2.4-.1m27.2 7.3c1.5 1.1 1.5 3.5-.1 4.5l-14.1 11.3c-1.1.9-2.4 1.3-3.7 1.3h-33.6c-.9 0-1.5-.6-1.5-1.5v-9c0-.9.6-1.5 1.5-1.5h5.2l4.4-3.6c2-1.6 4.3-2.4 6.9-2.4h15c1.9 0 3.2 1.7 3 3.5-.1.7-.5 1.4-1.1 1.8-.6.5-1.3.7-2.1.7h-7.3c-2 0-2 3 0 3h11.1c1.4 0 2.7-.4 3.7-1.3l8.7-6.9c1.1-.9 2.9-1 4 .1"/><path d="m184.5 77.2h6.1c0 7-3.5 13.8-9.4 17.7-2.9 2-6.2 3.1-9.7 3.5-1-3.9-2.9-7.3-5.6-10.3 1.9-3.3 4.5-6 7.8-8 3.3-1.9 6.9-2.9 10.8-2.9zm-36.6 6.1c11.7 0 21.3 9.8 21.3 21.4v13.7c0 .9-.6 1.5-1.5 1.5h-3.1c-.9 0-1.5-.7-1.5-1.5v-13.7c-11.6 0-21.4-9.8-21.4-21.4z"/><path d="m146.2 148.4c-2.6 2.6-7 2.3-9.2-.6-2.2-2.8-1.4-7.3 1.8-9v-16.1c0-3.9 6.1-3.9 6.1 0v16.1c1 .5 1.7 1.2 2.2 2.2 1.4 2.3 1 5.4-.9 7.4m2.3-8c-.3-.6-.9-1.4-1.7-2.3l-.4-.5v-21.1c0-1.3-.4-2.4-1.3-3.2-1.8-1.8-4.7-1.8-6.5 0-.9.9-1.3 2-1.3 3.2v21.1l-.4.5c-.8.9-1.4 1.7-1.7 2.3-1.7 2.9-1 6.6 1.3 9 1.5 1.5 3.3 2.3 5.3 2.3h.1c2.1 0 3.9-.7 5.4-2.2 2.2-2.4 2.9-6.2 1.2-9.1m5.5 3.6c0 2.2-.5 4.3-1.6 6.1-2.2 3.8-6.2 6.1-10.6 6.1h-.1c-4.2 0-8.5-2.4-10.5-6.2-2.6-4.5-2-10.3 1.4-14.2v-19.3c0-3.5 2.1-6.9 5.3-8.4 3.4-1.5 7.6-.8 10.3 1.9 1.8 1.8 2.7 3.9 2.7 6.5v19.3c2.1 2.5 3.1 5.2 3.1 8.2"/><path d="m362.6 91.2c-2.6 2.6-7 2.3-9.2-.6-2.2-2.8-1.4-7.3 1.8-9v-16.1c0-2.7 3.4-3.9 5.2-2.1.6.6.9 1.3.9 2.1v16.1c1 .5 1.7 1.2 2.2 2.2 1.4 2.4 1 5.4-.9 7.4m2.3-8c-.3-.6-.9-1.4-1.7-2.3l-.4-.5v-21c0-1.3-.4-2.4-1.3-3.2-2.8-2.8-7.8-.8-7.8 3.2v21.1l-.4.5c-.8.9-1.4 1.7-1.7 2.3-1.7 2.9-1 6.6 1.3 9 1.5 1.5 3.3 2.3 5.3 2.3h.1c2.1 0 3.9-.7 5.4-2.2 2.3-2.5 2.9-6.3 1.2-9.2m5.6 3.6c0 2.2-.5 4.3-1.6 6.1-2.2 3.8-6.2 6.1-10.6 6.1h-.1c-4.2 0-8.5-2.4-10.5-6.2-2.6-4.5-2-10.3 1.4-14.2v-19.2c0-2.5.9-4.7 2.7-6.5 3.5-3.5 9.4-3.5 13 0 1.8 1.8 2.7 3.9 2.7 6.5v19.3c1.9 2.4 3 5.1 3 8.1"/><path d="m406.4 145.7c0-.6-.2-1.2-.7-1.6-.4-.4-1-.7-1.6-.7h-29c-.6 0-1.2.2-1.6.7-.4.4-.7 1-.7 1.6v3.1c0 .6.2 1.2.7 1.6.4.4 1 .7 1.6.7h29c.6 0 1.2-.2 1.6-.7.4-.4.7-1 .7-1.6zm-54.9 4.1c-.9.9-2.4.9-3.2 0l-2.2-2.1c-.9-.9-.9-2.4 0-3.2l14.7-14.8-14.7-14.8c-.9-.9-.9-2.4 0-3.2l2.2-2.1c.9-.9 2.4-.9 3.2 0l18.5 18.5c.9.9.9 2.4 0 3.2z"/><path d="m507.5 89.8c9.3 3.4 15.7 12.2 15.7 22.2v.6c-2.9 1-5.7 1.4-8.6 1.3.4-4.4 0-8.7-1.3-12.8-1.2-4.2-3.1-8-5.8-11.3m4.1 23.9c-3.4-.4-6.7-1.4-9.8-3.1-.3-7.9-3.4-15.5-8.9-21.3 3-.9 6.2-1.1 9.4-.8 3.3 3.2 5.8 7 7.4 11.4 1.7 4.4 2.3 9 1.9 13.8m-11.9 1c4.8 2.5 9.9 3.8 15.2 3.9 2.5-.1 5.1-.4 7.7-1-.8 3.1-2.1 6-4 8.6-9 2.7-18.8.6-26.5-4.6 2.1-2.8 4.6-5.1 7.6-6.9m-9.3 9.4c3.1 2.2 6.5 3.8 10.1 4.9 4.7 1.4 9.5 1.7 14.4 1-7.7 6.5-18.9 7.4-27.5 2.2.5-3 1.6-5.7 3-8.1m6.8-13.4c-6.6 4.3-11.8 10.8-13.9 18.4-2.4-2.2-4.2-4.8-5.4-7.8 2.3-9.2 8.7-16.6 17.2-20.6 1.4 3.1 2.1 6.5 2.1 10m-3.5-12.7c-3.9 1.9-7.4 4.4-10.4 7.6-3 3.1-5.3 6.7-6.9 10.6-1.9-9.9 3.2-20.2 12-25 2.1 2 3.9 4.3 5.3 6.8"/><path d="m180.8 146.2h30.5v-12.2h-30.5zm42.7-15.2h-45.7v18.3h45.7v-6.1h3.1v-6.1h-3.1zm1.5-6.1c1.3 0 2.4.4 3.2 1.3.9.9 1.3 2 1.3 3.2v1.5h.8c.6 0 1.2.2 1.6.7.4.4.7 1 .7 1.6v13.8c0 .6-.2 1.2-.7 1.6-.4.4-1 .7-1.6.7h-.8v1.5c0 1.3-.4 2.4-1.3 3.2-.9.9-2 1.3-3.2 1.3h-48.8c-1.3 0-2.4-.4-3.2-1.3-.9-.9-1.3-2-1.3-3.2v-21.4c0-2.5 2.1-4.6 4.6-4.6z"/><path d="m165.2 55.6c-.6 0-1.1.5-1.1 1.1v8h-8c-.6 0-1.1.5-1.1 1.1v3.8c0 .6.5 1.1 1.1 1.1h11.8c.6 0 1.2-.2 1.6-.7.4-.4.7-1 .7-1.6v-11.6c0-.6-.5-1.1-1.1-1.1zm-10.3-22.5c0 .6.5 1.1 1.1 1.1h8v8c0 .6.5 1.1 1.1 1.1h3.8c.6 0 1.1-.5 1.1-1.1v-11.7c0-1.3-1-2.3-2.3-2.3h-11.8c-.6 0-1.1.5-1.1 1.1zm-12.2 32.8c0-.6-.5-1.1-1.1-1.1h-8v-8c0-.6-.5-1.1-1.1-1.1h-3.8c-.6 0-1.1.5-1.1 1.1v11.8c0 .6.2 1.2.7 1.6.4.4 1 .7 1.6.7h11.8c.6 0 1.1-.5 1.1-1.1zm-15.2-35.4c0-.6.2-1.2.7-1.6.4-.4 1-.7 1.6-.7h11.8c.6 0 1.1.5 1.1 1.1v3.8c0 .6-.5 1.1-1.1 1.1h-8v8c0 .6-.5 1.1-1.1 1.1h-3.8c-.6 0-1.1-.5-1.1-1.1z"/><path d="m455.7 135.8 7.8-5.5-6.2-9c-1.4-2.1-4.6-2.7-6.7-1.1-2.1 1.5-2.8 4.5-1.2 6.7zm-18.6-4.3v-10.7c0-1.3-.4-2.4-1.3-3.2-2.8-2.8-7.8-.8-7.8 3.2v10.7zm37.7 4.2c2.2 3.3 2.6 7.1 1 10.8-.8 1.7-2 3.2-3.7 4.3-3.3 2.4-7.7 2.6-11.2.8-1.6-.8-2.9-2-3.9-3.5l-12.5-17.8c-.4-.6-.9-1.4-1.2-2.4v14.2c0 3.8-2.1 7.4-5.3 9.2-7 4-16-1.1-16-9.2v-21.3c0-3.8 2.1-7.4 5.3-9.2 4.1-2.3 9.3-1.7 12.7 1.5 2 2 3.1 4.4 3.2 7.2.8-2.2 2.2-3.9 4-5.2 3.3-2.3 7.7-2.6 11.2-.8 1.6.8 2.9 2 3.9 3.5z"/><path d="m36.2 228c0-5.6-1.7-11.4-6-15.2-3.6-3.1-8.6-3.1-12.3 0-1.9 1.6-3.4 3.7-4.4 6.4-1.1 2.7-1.6 5.6-1.6 8.8zm-24.4-39.6c0 5.6 1.7 11.4 6 15.2 3.6 3.1 8.6 3.1 12.3 0 1.9-1.6 3.4-3.7 4.4-6.4 1.1-2.7 1.6-5.6 1.6-8.8zm29 0c0 4-.8 7.8-2.3 11.2-1.7 3.8-4 6.7-7 8.6 3 1.9 5.3 4.8 7 8.6 1.5 3.5 2.3 7.2 2.3 11.2h.4c.6 0 1.1.5 1.1 1.1v2.3c0 .6-.5 1.1-1.1 1.1h-34.4c-.6 0-1.1-.5-1.1-1.1v-2.3c0-.6.5-1.1 1.1-1.1h.4c0-4 .8-7.8 2.3-11.2 1.7-3.8 4-6.7 7-8.6-3-1.9-5.3-4.8-7-8.6-1.5-3.5-2.3-7.2-2.3-11.2h-.4c-.6 0-1.1-.5-1.1-1.1v-2.3c0-.6.5-1.1 1.1-1.1h34.3c.6 0 1.1.5 1.1 1.1v2.3c0 .6-.5 1.1-1.1 1.1z"/><path d="m92.8 214.3c-.4 0-.8-.4-.8-.8v-1.5c0-.2.1-.4.2-.5.2-.2.3-.2.5-.2h10.7c.4 0 .8.4.8.8v1.5c0 .2-.1.4-.2.5-.2.2-.3.2-.5.2zm0-6.1c-.2 0-.4-.1-.5-.2-.2-.2-.2-.3-.2-.5v-1.5c0-.2.1-.4.2-.5.2-.2.3-.2.5-.2h10.7c.2 0 .4.1.5.2.2.2.2.3.2.5v1.5c0 .2-.1.4-.2.5-.2.2-.3.2-.5.2zm0-6.1c-.2 0-.4-.1-.5-.2-.2-.2-.2-.3-.2-.5v-1.5c0-.2.1-.4.2-.5.2-.2.3-.2.5-.2h10.7c.2 0 .4.1.5.2.2.2.2.3.2.5v1.5c0 .4-.4.8-.8.8h-10.6zm-14.5 6.1c-5.3 0-8-6.6-4.3-10.4 2.4-2.4 6.2-2.4 8.6 0 3.8 3.8 1.1 10.4-4.3 10.4zm-8.6 12.2c-.6 0-1.1-.2-1.5-.5-.4-.4-.6-.8-.6-1.3v-1.8c0-3.6 4.3-6.5 7.6-5.2 2 .6 4.1.6 6.1 0 3.4-1.1 7.6 1.6 7.6 5.2v1.8c0 .5-.2.9-.6 1.3-.4.3-.9.5-1.5.5zm-6.6 4.6h45.7v-33.5h-45.7zm45.7-38.1c2.5 0 4.5 2 4.5 4.5v33.6c0 1.3-.4 2.4-1.3 3.2-.9.9-2 1.3-3.2 1.3h-45.7c-2.5 0-4.5-2-4.5-4.5v-33.6c0-1.3.4-2.4 1.3-3.2.9-.9 2-1.3 3.2-1.3z"/><path d="m197.6 213.3c1.3 0 2.3-1 2.3-2.3h-4.6c0 .6.2 1.2.7 1.6.4.5.9.7 1.6.7zm14.9-6.8c1.7 0 2.3-1.9 1.3-3.1-2.1-2.1-3.5-4.4-4.2-7.3-1-4.3.1-9.1-2.2-13-1-1.7-2.4-3.1-4.1-4.1-5.4-3.1-12.4-1.2-15.5 4.1-2.3 3.9-1.2 8.6-2.2 12.9-.4 1.7-1 3.2-1.7 4.4-.6.8-1.4 1.8-2.5 3-.6.6-.7 1.2-.4 2 .3.7.8 1.1 1.7 1.1zm4.2-6.6c1.9 1.9 2.8 4.6 1.8 7.1-1 2.4-3.4 4-6 4h-8.9c0 1.7-.6 3.2-1.8 4.3-2.3 2.3-6.3 2.3-8.7 0-1.2-1.2-1.8-2.6-1.8-4.3h-8.9c-2.6 0-5-1.6-6-4-.6-1.6-.5-3.4.2-4.9.7-1.6 2.2-2.5 3.1-4 .6-.9 1-2 1.2-3.2.7-3.7.1-7.6 1.4-11.3 1.1-3 3.1-5.7 5.7-7.6 2-1.5 4.3-2.4 6.9-2.8-1.5-1.9.1-4.7 2.4-4.8 2.4-.1 4 2.8 2.6 4.8 2.5.4 4.8 1.3 6.9 2.8 2 1.5 3.6 3.4 4.8 5.6 1.1 2.1 1.7 4.4 1.8 6.8.1 2.2.1 4.4.5 6.5.3 1.3.7 2.4 1.2 3.2.4.5.9 1.1 1.6 1.8z"/><path d="m305.6 201.9c3.3 0 4.1 4.7 1 5.9-3 1.1-5.5-2.7-3.2-5 .7-.6 1.4-.9 2.2-.9m-10.7 0c3.3 0 4.1 4.7 1 5.9-3 1.1-5.5-2.7-3.2-5 .7-.6 1.4-.9 2.2-.9m-10.6 0c4 0 3.8 6.3-.2 6.1-3.9-.2-3.7-6.1.2-6.1m10.6 18.3c6.4 0 13.2-2.4 17.2-7.6 3.5-4.6 3.5-10.7 0-15.2-7.8-10.3-26.5-10.3-34.3 0-3.9 5.2-3.3 11.9 1.1 16.5l1.9 2.1-1 2.7c-.5 1.3-1.1 2.6-1.9 3.9 1.9-.6 3.7-1.6 5.4-2.9l1.9-1.2 2.2.7c2.5.6 5 1 7.5 1m0-35.1c8 0 16.3 3.3 21.1 9.9 4.3 5.9 4.3 14 0 19.9-2.2 3-5.1 5.4-8.9 7.2-6.5 3.1-14.2 3.4-21.1 1.3-2.1 1.5-4.5 2.7-7 3.5-1.3.3-2.7.6-4 .8-1.1.1-2.4.4-3.4-.3-.8-.6-1.2-1.3-1-2.3.3-1.1 1.6-2.3 2.3-3.2 1.3-1.7 2.2-3.4 2.8-5-2.7-2.9-4.6-6.5-5-10.4-.4-4.1.8-8.2 3.2-11.5 4.7-6.6 13-9.9 21-9.9"/><path d="m467.6 206.8v-30.5h-30.5v4.6h21.4c1.3 0 2.4.4 3.2 1.3.9.9 1.3 2 1.3 3.2v21.3zm-39.7 9.2h30.5v-19.8h-30.5zm39.7-44.2c1.3 0 2.4.4 3.2 1.3.9.9 1.3 2 1.3 3.2v30.5c0 1.3-.4 2.4-1.3 3.2-.9.9-2 1.3-3.2 1.3h-4.6v4.6c0 1.3-.4 2.4-1.3 3.2-.9.9-2 1.3-3.2 1.3h-30.5c-1.3 0-2.4-.4-3.2-1.3-.9-.9-1.3-2-1.3-3.2v-30.5c0-1.3.4-2.4 1.3-3.2.9-.9 2-1.3 3.2-1.3h4.6v-4.6c0-1.3.4-2.4 1.3-3.2.9-.9 2-1.3 3.2-1.3z"/><path d="m330.4 269.9c0-.6-.5-1.1-1.1-1.1h-13c-.6 0-1.1.5-1.1 1.1v2.7c0 .5.1 1 .4 1.3.3.4.7.7 1.1.9v.9c0 1.3 1 2.3 2.3 2.3h7.6c1.3 0 2.3-1 2.3-2.3v-.9c.9-.4 1.5-1.2 1.5-2.2zm-13.7-24c0 .4-.1.8-.4 1.1-.9.9-2.4.3-2.6-.9-.2-1.1.1-2.2.4-3.2.8-2.6 3.1-4.9 5.7-5.7 1.2-.4 3.5-1.1 4.3.3.4.8.1 1.8-.6 2.1-.8.4-1.7.2-2.5.4-1 .3-1.8.8-2.5 1.6-1.2 1.2-1.8 2.6-1.8 4.3zm6.1-12.2c-4.3 0-8.4 2.3-10.6 6.1-1.8 3-2.3 7.4-.9 10.7.9 2.2 3 3.8 4.3 5.8 1 1.4 1.8 3 2.7 4.9h9c.8-1.8 1.7-3.5 2.7-4.9 1.3-2 3.3-3.6 4.3-5.8 1.4-3.3.9-7.6-.9-10.7-2.2-3.9-6.3-6.1-10.6-6.1zm0-4.6c3 0 5.9.7 8.4 2.2 3.4 2 6.1 5.1 7.4 8.9 1.3 3.7 1.4 8.3-.1 12-.5 1-1.4 2.4-2.8 4-1 1.3-1.8 2.4-2.4 3.2-1 1.5-1.8 3.1-2.5 4.9-.1.4-.4.8-.8 1-.4.3-.8.4-1.3.4h-12c-.5 0-1-.1-1.3-.4-.4-.3-.6-.6-.8-1-.7-1.8-1.5-3.4-2.5-4.9-.6-.9-1.4-2-2.4-3.2-1.3-1.7-2.3-3-2.8-4-1.9-4.6-1.3-10.5 1.2-14.7 1.5-2.6 3.5-4.6 6.1-6.1 2.7-1.6 5.6-2.3 8.6-2.3z"/><path d="m587.5 218.5c.4 0 .8-.2 1.1-.5.9-1 .3-2.6-1.1-2.6s-2 1.6-1.1 2.6c.3.3.6.5 1.1.5zm-4.6-4.6v-12.2h-4.3l-5.8-5.9c-.2-.1-.4-.2-.6-.2h-8c-1 0-1.8.4-2.6 1l-6.2 5.7c-1 .8-.9 2.3-.1 3.2.8 1 2.4.8 3.3 0l5.2-4.9c.6-.5 1.7-.6 2.2.1l1 1.1c.5.6.6 1.6-.1 2.1l-1.2 1.1 9.8 7.9.8.8zm-10.1 3.9c.1-.2.2-.4.1-.6 0-.2-.1-.4-.2-.5l-10.3-8.3-.9.7c-1.1 1.1-2.4 1.7-3.9 1.8-1.1.1-2.3-.2-3.4-.7-1-.4-1.7-1-2.3-1.5-2.6-2.7-2.3-7.2.4-9.7l3.7-3.3h-5.4l-.5.2-5.9 5.9h-4v12.2h2.7l9.2 8.4c1.6 1.2 4 1.1 5.2-.6l1.5-1.8 3.5 3.1c.5.4 1.3.2 1.7-.3l2.9-3.4 2.3 1.8c.1.1.3.2.5.1.2 0 .4-.1.5-.2zm-37.2.7c.4 0 .8-.2 1.1-.5.5-.6.6-1.6 0-2.1-1.4-1.4-3.4.6-2.2 2.1.3.3.7.5 1.1.5zm44.9-21.4h11.5v24.4h-6c-1.6 0-3-1.4-3-3.1h-5.5c-.2.8-.5 1.6-1 2.2l-2.5 3.1c-1.5 1.9-3.8 2.5-6.1 1.7-2.2 2.7-6 3-8.6.8-1.5 1.1-3.2 1.6-5.1 1.5-1.8-.1-3.5-.7-5-1.9l-8.1-7.2h-.9c0 1.6-1.4 3.1-3.1 3.1h-6.1v-24.4h11.2l4.6-4.6c1-1 2.3-1.5 3.7-1.5h21.6c1.5 0 2.7.5 3.8 1.5z"/><path d="m395.3 172.4c-.6 0-1.2.2-1.6.7-.9.9-.9 2.4 0 3.2 2.1 2.1 5.3-1.1 3.2-3.2-.4-.5-.9-.7-1.6-.7zm13.2 40.4c.3 0 .6-.3.6-.6v-32.4c0-.3-.3-.6-.6-.6h-4v3.4c0 .6-.5 1.1-1.1 1.1h-16c-.6 0-1.1-.5-1.1-1.1v-3.4h-4c-.3 0-.6.3-.6.6v32.4c0 .3.3.6.6.6zm.5-38.1c1.3 0 2.4.4 3.2 1.3.9.9 1.3 2 1.3 3.2v33.6c0 1.3-.4 2.4-1.3 3.2-.9.9-2 1.3-3.2 1.3h-27.5c-1.3 0-2.4-.4-3.2-1.3-.9-.9-1.3-2-1.3-3.2v-33.6c0-1.3.4-2.4 1.3-3.2.9-.9 2-1.3 3.2-1.3h7.6c0-1.7.6-3.1 1.8-4.3 2.4-2.4 6.2-2.4 8.6 0 1.2 1.2 1.8 2.6 1.8 4.3z"/><path d="m565.7 266.1c0-.6-.5-1.1-1.1-1.1h-13c-.6 0-1.1.5-1.1 1.1v3.8c0 .6.5 1.1 1.1 1.1h13c.6 0 1.1-.5 1.1-1.1zm-18.3 0c0-.6-.5-1.1-1.1-1.1h-6.9c-.6 0-1.1.5-1.1 1.1v3.8c0 .6.5 1.1 1.1 1.1h6.9c.6 0 1.1-.5 1.1-1.1zm31.5 9.5c.3 0 .6-.3.6-.6v-16.2h-45.7v16.2c0 .3.3.6.6.6zm-44.6-33.6c-.3 0-.6.3-.6.6v4h45.7v-4c0-.3-.3-.6-.6-.6zm45.2-4.5c2.5 0 4.5 2 4.5 4.5v33.5c0 1.3-.4 2.4-1.3 3.2-.9.9-2 1.3-3.2 1.3h-45.7c-1.3 0-2.4-.4-3.2-1.3-.9-.9-1.3-2-1.3-3.2v-33.5c0-1.3.4-2.4 1.3-3.2.9-.9 2-1.3 3.2-1.3z"/><path d="m451.9 255.6c0 .6.5 1.1 1.1 1.1h9.9c.6 0 1.1-.5 1.1-1.1v-2.3c0-.6-.5-1.1-1.1-1.1h-9.9c-.6 0-1.1.5-1.1 1.1zm0-6.9c0 .6.5 1.1 1.1 1.1h9.9c.6 0 1.1-.5 1.1-1.1v-2.3c0-.6-.5-1.1-1.1-1.1h-9.9c-.6 0-1.1.5-1.1 1.1zm0-6.8c0 .6.5 1.1 1.1 1.1h9.9c.6 0 1.1-.5 1.1-1.1v-2.3c0-.6-.5-1.1-1.1-1.1h-9.9c-.6 0-1.1.5-1.1 1.1zm-14.5 4.2h7.6v-3.8h-7.6zm-3.8 9.5c0 .6.5 1.1 1.1 1.1h13c.6 0 1.1-.5 1.1-1.1v-2.3c0-.6-.5-1.1-1.1-1.1h-13c-.6 0-1.1.5-1.1 1.1zm1.1-5.7c-.6 0-1.1-.5-1.1-1.1v-9.1c0-.6.5-1.1 1.1-1.1h13c.6 0 1.1.5 1.1 1.1v9.1c0 .6-.5 1.1-1.1 1.1zm34 11.4v-27.4h-39.7v26.7l-.1.8h39.8zm-45.8-.8c0 .9 1.4.9 1.4 0v-23.6h-1.5zm48.1-31.2c.6 0 1.2.2 1.6.7.4.4.7 1 .7 1.6v32c0 1.3-1 2.3-2.3 2.3h-47.3c-1.5 0-2.7-.5-3.8-1.6-1-1-1.6-2.3-1.6-3.8v-25.9c0-1.3 1-2.3 2.3-2.3h4.1c.6-1.7 2.5-3.1 4.3-3.1z"/><path d="m352.6 182.5c-3.3 0-4.1-4.7-1-5.9 3-1.1 5.5 2.7 3.2 5-.7.6-1.4.9-2.2.9m-15.3 0c-4 0-3.8-6.3.2-6.1 3.9.2 3.7 6.1-.2 6.1m15.7 6.9c1.2-1.7 3.8-.7 4 1.2.1.6-.1 1.2-.5 1.6-4.4 5.1-11.7 6.9-17.9 4-2-1-3.7-2.3-5.2-4-.4-.4-.5-1-.5-1.6.1-.6.3-1.2.8-1.6.9-.8 2.4-.7 3.2.3 1 1.1 2.2 2 3.6 2.7 2.8 1.3 6 1.3 8.8 0 1.5-.5 2.7-1.4 3.7-2.6m-8 13.6c6.8 0 13-3.8 16.5-9.6 3.4-5.8 3.4-13.2 0-19.1-1.7-2.9-4-5.2-7-7-5.8-3.4-13.2-3.4-19.1 0-2.9 1.7-5.2 4-7 7-3.4 5.8-3.4 13.2 0 19.1s9.8 9.6 16.6 9.6m0-42.7c8.3 0 16.2 4.6 20.4 11.8 6.5 11.1 2.4 25.8-8.6 32.2-7.2 4.2-16.4 4.2-23.6 0-3.6-2.1-6.5-5-8.6-8.6-3.2-5.5-4-12.4-2.2-18.5 1.8-6 6-11.1 11.5-14.1 3.5-1.9 7.2-2.8 11.1-2.8"/><path d="m70.6 263.2c0-3.3-4.7-4.1-5.9-1-1.1 3 2.7 5.5 5 3.2.6-.7.9-1.4.9-2.2zm-9.1 0c0-2.7-3.3-4-5.2-2.1-1.2 1.2-1.2 3.1 0 4.3 1.9 1.8 5.2.5 5.2-2.2zm-23.6-21.4-7.4 10.7h40.6l-7.4-10.7zm-10 27.5h45.7v-12.2h-45.7zm49.5-15.6c.6.8.9 1.6.9 2.6v13.1c0 2.5-2.1 4.6-4.6 4.6h-45.8c-1.3 0-2.4-.4-3.2-1.3-.9-.9-1.3-2-1.3-3.2v-13.1c0-1 .3-1.8.9-2.6l10-14.4c.8-1.3 2.2-2 3.7-2h25.7c.8 0 1.5.2 2.1.5.7.3 1.2.8 1.6 1.5z"/><path d="m112.3 250.1c-.2-1.1-1-1.7-2.1-1.7-5.5.8-10.6 5.2-13.7 9.6-1.8 2.6-2.9 5.1-3.2 7.3-.2 1 .7 2.1 1.7 2.1 1 .2 2.1-.7 2.1-1.7.2-1.7 1-3.5 2.6-5.6 1.4-1.9 3.1-3.7 5-5.1 1.8-1.3 3.8-2.6 6-2.9.9 0 1.7-.9 1.6-2m16.2-.9c.4-.7.3-1.5-.2-2.5-.8-1.5-2.9-3.3-4.7-2.4-1 .6-2.3 1-3.8 1-.9.1-2.4 0-4.4-.2-2.5-.2-4.4-.3-5.7-.2-2.3.2-4.4.7-6.4 1.5-5.1 2.3-9.7 6.9-12 12-.8 2-1.3 4.1-1.5 6.4-.1 1.3 0 3.2.2 5.7.2 2 .3 3.5.2 4.4-.1 1.5-.4 2.8-1 3.8-.4.7-.3 1.5.2 2.5.8 1.5 2.9 3.3 4.7 2.4 1-.6 2.3-1 3.8-1 .9-.1 2.4 0 4.4.2 2.5.2 4.4.3 5.7.2 2.3-.2 4.4-.7 6.4-1.5 2.4-1.1 4.7-2.7 7-5 2.2-2.2 3.9-4.5 5-7 .8-2 1.3-4.1 1.5-6.4.1-1.3 0-3.2-.2-5.7-.2-2-.3-3.5-.2-4.4 0-1.5.4-2.8 1-3.8m2.1-6.9c2.4 2.4 3.6 6.2 1.8 9.3-.9 1.4-.4 3.8-.3 5.3.3 2.7.3 4.9.3 6.5-.2 2.7-.8 5.3-1.8 7.7-2.6 6.3-8.5 11.8-14.6 14.7-2.5 1-5.1 1.6-7.8 1.8-1.6.1-3.8 0-6.5-.3-1.6-.1-3.9-.6-5.3.3-1.4.8-3 1.1-4.7.7-3.5-.7-6.4-3.6-7.1-7.1-.3-1.7-.1-3.3.7-4.7.9-1.4.4-3.7.3-5.3-.3-2.7-.3-4.9-.3-6.5.2-2.7.8-5.3 1.8-7.7 2.7-6.3 8.4-11.8 14.6-14.7 2.5-1 5.1-1.6 7.8-1.8 1.6-.1 3.7 0 6.5.3 1.6.1 3.9.6 5.3-.3 1.4-.8 3-1.1 4.7-.7 1.7.3 3.2 1.1 4.6 2.5"/><path d="m501.1 211.7c3.9 0 3.8 6.1 0 6.1-4 0-4-6.1 0-6.1zm8.7-7.6c.2-.7.1-1.3-.3-1.9-.4-.5-1-.9-1.6-1-.7-.1-1.3.1-1.9.6l-9.7 9.3c-.3.3-.5.6-.7 1l-3.1 13.2c-.2.7-.1 1.3.3 1.9.9 1.1 2.4 1.3 3.5.3l9.7-9.3c.3-.3.5-.6.7-1zm-8.7 29.7c6.8 0 13-3.8 16.5-9.6 3.4-5.8 3.4-13.2 0-19.1-1.7-2.9-4-5.2-7-7-5.8-3.4-13.2-3.4-19.1 0-2.9 1.7-5.2 4-7 7-3.4 5.8-3.4 13.2 0 19.1 1.7 2.9 4 5.2 7 7 3 1.7 6.1 2.6 9.6 2.6zm0-42.7c4.3 0 8.2 1.1 11.8 3.2 5.2 3 9.2 8 10.9 13.8 1.8 6.1 1 12.9-2.3 18.5-2.1 3.6-5 6.5-8.6 8.6-7.2 4.2-16.4 4.2-23.6 0-3.6-2.1-6.5-5-8.6-8.6-3.2-5.5-4.1-12.3-2.3-18.5 1.7-5.8 5.7-10.8 10.9-13.8 3.6-2.1 7.5-3.2 11.8-3.2z"/><path d="m386.2 261.1h16.4l-4.6-7.4c-.4-.5-.6-1.1-.6-1.7v-15.2h-6.1v15.2c0 .6-.2 1.2-.6 1.7zm28.5 7.9c1.7 2.8 1.2 6.5-1.3 8.7-1.2 1.1-2.7 1.7-4.4 1.7h-29.2c-5.3 0-8.4-5.9-5.7-10.4l11.2-17.9v-14.4h-.8c-.6 0-1.2-.2-1.6-.7-.4-.4-.7-1-.7-1.6v-1.5c0-1.3 1-2.3 2.3-2.3h19.8c1.3 0 2.3 1 2.3 2.3v1.5c0 .6-.2 1.2-.7 1.6-.4.4-1 .7-1.6.7h-.8v14.4z"/><path d="m235.3 206.7-10.2-10.7c-2.9-3.3-2.6-8.2.6-11.2 2.8-2.4 7.3-1.9 9.8.8l1 1.1 1-1.1c2.6-2.6 6.9-3.2 9.8-.7 3.4 2.8 3.6 8 .6 11.2l-10.2 10.7c-.7.6-1.7.7-2.4-.1m27.2 7.3c1.5 1.1 1.5 3.5-.1 4.5l-14.2 11.5c-1.1.9-2.4 1.3-3.7 1.3h-33.5c-.9 0-1.5-.6-1.5-1.5v-9c0-.9.6-1.5 1.5-1.5h5.2l4.4-3.6c2-1.6 4.3-2.4 6.9-2.4h15c1.9 0 3.2 1.7 3 3.5-.1.7-.5 1.4-1.1 1.8-.6.5-1.3.7-2.1.7h-7.3c-.4 0-.8.1-1.1.4-1 1-.2 2.6 1.1 2.6h11.1c1.4 0 2.7-.4 3.7-1.3l8.7-6.9c1.1-1 2.9-1.1 4-.1"/><path d="m184.5 237.6h6.1c0 7-3.5 13.8-9.4 17.7-2.9 2-6.2 3.1-9.7 3.5-1-3.9-2.9-7.3-5.6-10.3 1.9-3.3 4.5-6 7.8-8 3.3-1.9 6.9-2.9 10.8-2.9zm-36.6 6.1c11.6 0 21.4 9.8 21.4 21.4v13.7c0 .9-.6 1.5-1.5 1.5h-3.1c-.9 0-1.5-.7-1.5-1.5v-13.8c-11.6 0-21.4-9.8-21.4-21.4z"/><path d="m362.6 251.5c-2.6 2.6-7 2.3-9.2-.6-2.2-2.8-1.4-7.3 1.8-9v-16.1c0-3.9 6.1-3.9 6.1 0v16.1c1 .5 1.7 1.2 2.2 2.2 1.4 2.4 1 5.5-.9 7.4m2.3-7.9c-.3-.6-.9-1.4-1.7-2.3l-.4-.5v-21.1c0-1.3-.4-2.4-1.3-3.2-1.8-1.8-4.7-1.8-6.5 0-.9.9-1.3 2-1.3 3.2v21.1l-.4.5c-.8.9-1.4 1.7-1.7 2.3-1.7 2.9-1 6.6 1.3 9 1.5 1.5 3.3 2.3 5.3 2.3h.1c2.1 0 3.9-.7 5.4-2.2 2.3-2.5 2.9-6.2 1.2-9.1m5.6 3.6c0 2.2-.5 4.3-1.6 6.1-2.2 3.8-6.2 6.1-10.6 6.1h-.1c-4.2 0-8.5-2.4-10.5-6.2-2.6-4.5-2-10.3 1.4-14.2v-19.3c0-2.5.9-4.7 2.7-6.5 3.5-3.5 9.4-3.5 13 0 1.8 1.8 2.7 3.9 2.7 6.5v19.3c1.9 2.4 3 5.1 3 8.2"/><path d="m165.2 216c-.6 0-1.1.5-1.1 1.1v8h-8c-.6 0-1.1.5-1.1 1.1v3.8c0 .6.5 1.1 1.1 1.1h11.8c.6 0 1.2-.2 1.6-.7.4-.4.7-1 .7-1.6v-11.8c0-.6-.5-1.1-1.1-1.1zm-10.3-22.5c0 .6.5 1.1 1.1 1.1h8v8c0 .6.5 1.1 1.1 1.1h3.8c.6 0 1.1-.5 1.1-1.1v-11.8c0-1.3-1-2.3-2.3-2.3h-11.8c-.6 0-1.1.5-1.1 1.1zm-12.2 32.8c0-.6-.5-1.1-1.1-1.1h-8v-8c0-.6-.5-1.1-1.1-1.1h-3.8c-.6 0-1.1.5-1.1 1.1v11.8c0 .6.2 1.2.7 1.6.4.4 1 .7 1.6.7h11.8c.6 0 1.1-.5 1.1-1.1zm-15.2-35.5c0-.6.2-1.2.7-1.6.4-.4 1-.7 1.6-.7h11.8c.6 0 1.1.5 1.1 1.1v3.8c0 .6-.5 1.1-1.1 1.1h-8v8c0 .6-.5 1.1-1.1 1.1h-3.8c-.6 0-1.1-.5-1.1-1.1z"/><path d="m631.8 67.7c0-5.6-1.7-11.4-6-15.2-3.6-3.1-8.6-3.1-12.3 0-1.9 1.6-3.4 3.7-4.4 6.4-1.1 2.7-1.6 5.6-1.6 8.8zm-24.4-39.7c0 5.6 1.7 11.4 6 15.2 3.6 3.1 8.6 3.1 12.3 0 1.9-1.6 3.4-3.7 4.4-6.4 1.1-2.7 1.6-5.6 1.6-8.8zm29 0c0 4-.8 7.8-2.3 11.2-1.7 3.8-4 6.7-7 8.6 3 1.9 5.3 4.8 7 8.6 1.5 3.5 2.3 7.2 2.3 11.2h.4c.6 0 1.1.5 1.1 1.1v2.3c0 .6-.5 1.1-1.1 1.1h-34.3c-.6 0-1.1-.5-1.1-1.1v-2.3c0-.6.5-1.1 1.1-1.1h.4c0-4 .8-7.8 2.3-11.2 1.7-3.8 4-6.7 7-8.6-3-1.9-5.3-4.8-7-8.6-1.5-3.5-2.3-7.2-2.3-11.2h-.4c-.6 0-1.1-.5-1.1-1.1v-2.3c0-.6.5-1.1 1.1-1.1h34.3c.6 0 1.1.5 1.1 1.1v2.3c0 .6-.5 1.1-1.1 1.1z"/><path d="m688.4 54c-.2 0-.4-.1-.5-.2-.2-.2-.2-.3-.2-.5v-1.5c0-.2.1-.4.2-.5.2-.2.3-.2.5-.2h10.7c.4 0 .8.4.8.8v1.5c0 .2-.1.4-.2.5-.2.2-.3.2-.5.2zm0-6.1c-.2 0-.4-.1-.5-.2-.2-.2-.2-.3-.2-.5v-1.5c0-.2.1-.4.2-.5.2-.2.3-.2.5-.2h10.7c.2 0 .4.1.5.2.2.2.2.3.2.5v1.5c0 .4-.4.8-.8.8zm0-6.1c-.2 0-.4-.1-.5-.2-.2-.2-.2-.3-.2-.5v-1.5c0-.2.1-.4.2-.5.2-.2.3-.2.5-.2h10.7c.2 0 .4.1.5.2.2.2.2.3.2.5v1.4c0 .4-.4.8-.8.8zm-14.4 6.1c-3 0-5.6-2.3-6-5.3-.4-2.8 1.3-5.5 3.9-6.5s5.6 0 7.2 2.3c1.6 2.4 1.3 5.7-.7 7.7-1.4 1.2-2.8 1.8-4.4 1.8zm-8.6 12.2c-1 0-2.1-.7-2.1-1.8v-1.8c0-1.5.6-2.8 1.9-3.9 1.5-1.3 3.8-2.1 5.8-1.3 2 .6 4.1.6 6.1 0 2-.7 4.2 0 5.8 1.3 1.2 1.1 1.9 2.4 1.9 3.9v1.8c0 .5-.2.9-.6 1.3-.4.3-.9.5-1.5.5zm-6.7 4.5h45.7v-33.5h-45.7zm45.8-38.1c2.5 0 4.6 2.1 4.6 4.6v33.6c0 1.3-.4 2.4-1.3 3.2-.9.9-2 1.3-3.2 1.3h-45.7c-1.3 0-2.4-.4-3.2-1.3-.9-.9-1.3-2-1.3-3.2v-33.6c0-2.5 2.1-4.6 4.6-4.6z"/><path d="m793.2 53c1.3 0 2.3-1 2.3-2.3h-4.6c0 1.3 1 2.3 2.3 2.3zm15-6.9c1.7 0 2.3-1.9 1.3-3.1-1.1-1.1-1.9-2.1-2.5-3-.8-1.2-1.3-2.6-1.7-4.3-1-4.3.1-9.1-2.2-13-4.3-7.4-15.3-7.4-19.6 0-2.3 3.9-1.2 8.6-2.2 12.9-.4 1.7-1 3.2-1.7 4.4-.6.8-1.4 1.8-2.5 3-.6.6-.7 1.2-.4 2 .3.7.8 1.1 1.7 1.1zm4.1-6.5c2.6 2.6 3 6.6.3 9.3-1.2 1.2-2.7 1.9-4.5 1.9h-8.9c0 1.7-.6 3.2-1.8 4.3-2.3 2.3-6.3 2.3-8.7 0-1.2-1.2-1.8-2.6-1.8-4.3h-8.9c-2.6 0-5-1.6-6-4-1-2.5-.1-5.2 1.8-7.1.7-.7 1.2-1.3 1.5-1.8.6-.9 1-2 1.2-3.2.4-2.2.4-4.3.5-6.5.1-2.4.7-4.7 1.8-6.8 2.4-4.5 6.7-7.6 11.7-8.4-1.4-1.8-.2-4.2 1.9-4.7 2.6-.6 4.6 2.5 3 4.7 2.5.4 4.8 1.3 6.9 2.8 2 1.5 3.6 3.4 4.8 5.6 1.1 2.1 1.7 4.4 1.8 6.8.1 2.2.1 4.4.5 6.5.3 1.3.7 2.4 1.2 3.2.5.4 1 1 1.7 1.7z"/><path d="m901.3 41.6c.8 0 1.5.3 2.1.9 1.9 1.9.5 5.2-2.1 5.2-2.7 0-4-3.3-2.2-5.2.6-.6 1.3-.9 2.2-.9m-10.7 0c.8 0 1.5.3 2.1.9 1.9 1.9.5 5.2-2.2 5.2s-4-3.3-2.1-5.2c.6-.6 1.4-.9 2.2-.9m-10.7 0c.8 0 1.5.3 2.1.9 1.9 1.9.5 5.2-2.1 5.2-2.7 0-4-3.3-2.2-5.2.7-.6 1.4-.9 2.2-.9m10.7 18.3c6.4 0 13.2-2.4 17.2-7.6 3.5-4.6 3.5-10.7 0-15.2-6-8-18.3-9.5-27.1-5.6-3.1 1.4-5.5 3.2-7.2 5.6-3.9 5.2-3.3 11.9 1.1 16.5l1.9 2.1-1 2.7c-.5 1.3-1.1 2.6-1.9 3.9 1.9-.6 3.7-1.6 5.4-2.9l2-1.4 2.2.7c2.4.8 4.8 1.2 7.4 1.2m0-35.1c8 0 16.3 3.2 21.1 9.9 4.3 6 4.3 14 0 19.9-2.2 3-5.1 5.4-8.9 7.2-6.5 3.1-14.2 3.4-21.1 1.3-2.4 1.7-5 3-7.8 3.7-1.3.3-2.7.6-4.1.6-1.4.1-2.8.1-3.4-1.3-.2-.4-.2-.8-.1-1.3.3-1.1 1.6-2.3 2.3-3.2 1.3-1.7 2.2-3.4 2.8-5-2.7-2.9-4.6-6.5-5-10.4-.4-4.1.8-8.2 3.2-11.5 2.2-3 5.1-5.4 8.9-7.2 3.6-1.8 7.6-2.7 12.1-2.7"/><path d="m926.1 109.5c0-.6-.5-1.1-1.1-1.1h-13c-.6 0-1.1.5-1.1 1.1v2.7c0 1 .6 1.8 1.5 2.2v.9c0 .6.2 1.2.7 1.6.4.4 1 .7 1.6.7h7.6c.6 0 1.2-.2 1.6-.7.4-.4.7-1 .7-1.6v-.9c.9-.4 1.5-1.2 1.5-2.2zm-13.8-24c0 .4-.1.8-.4 1.1-.6.6-1.6.6-2.2 0-.7-.7-.4-2.2-.2-3.1.2-1 .6-2 1.1-2.8 1.1-1.8 2.8-3.2 4.8-3.9.9-.3 2-.5 3-.5 1.1.1 1.9 1.2 1.4 2.3-.6 1-1.9.7-2.8 1-1.1.3-2 .9-2.8 1.6-1.3 1.2-1.9 2.7-1.9 4.3zm6.1-12.2c-4.3 0-8.4 2.3-10.6 6.1-1.8 3.1-2.3 7.4-.9 10.7.9 2.2 3 3.8 4.3 5.8 1 1.4 1.8 3 2.7 4.9h9c.8-1.8 1.7-3.5 2.7-4.9 1.3-2 3.4-3.6 4.3-5.8 1.4-3.3.9-7.6-.9-10.7-2.2-3.8-6.2-6.1-10.6-6.1zm0-4.6c3 0 5.9.7 8.4 2.2 2.6 1.5 4.6 3.5 6.1 6.1 2.5 4.2 3.1 10.1 1.2 14.7-.5 1-1.4 2.4-2.8 4-1 1.3-1.8 2.4-2.4 3.2-1 1.5-1.8 3.1-2.5 4.9-.1.4-.4.8-.8 1-.4.3-.8.4-1.3.4h-12c-.5 0-1-.1-1.3-.4-.4-.3-.6-.6-.8-1-.7-1.8-1.5-3.4-2.5-4.9-.6-.9-1.4-2-2.4-3.2-1.3-1.7-2.3-3-2.8-4-1.9-4.6-1.3-10.5 1.2-14.7 1.5-2.6 3.5-4.6 6.1-6.1 2.8-1.4 5.6-2.2 8.6-2.2z"/><path d="m991 12.1c-2 0-3 2.5-1.6 3.9.9.9 2.4.9 3.2 0 1.4-1.4.4-3.9-1.6-3.9zm13.1 40.4c.3 0 .6-.3.6-.6v-32.4c0-.3-.3-.6-.6-.6h-4v3.4c0 .6-.5 1.1-1.1 1.1h-16c-.6 0-1.1-.5-1.1-1.1v-3.4h-4c-.3 0-.6.3-.6.6v32.4c0 .3.3.6.6.6zm.6-38.1c2.5 0 4.5 2 4.5 4.5v33.5c0 1.3-.4 2.4-1.3 3.2-.9.9-2 1.3-3.2 1.3h-27.5c-2.5 0-4.5-2-4.5-4.5v-33.5c0-1.3.4-2.4 1.3-3.2.9-.9 2-1.3 3.2-1.3h7.6c0-5.3 6.6-8.1 10.4-4.3 1.2 1.2 1.8 2.6 1.8 4.3z"/><path d="m823.7 114.9 7.2-7.2h-7.2zm7.6-33.2h-33.5v33.5h21.3v-9.9c0-.6.2-1.2.7-1.6.4-.4 1-.7 1.6-.7h9.9zm4.6 25.5c0 1.3-.4 2.4-1.3 3.2l-8 8c-.9.9-2 1.3-3.2 1.3h-25.5c-2.5 0-4.5-2-4.5-4.5v-33.5c0-1.3.4-2.4 1.3-3.2.9-.9 2-1.3 3.2-1.3h33.5c1.3 0 2.4.4 3.2 1.3.9.9 1.3 2 1.3 3.2z"/><path d="m861.9 115.8 3.5-4.8-3.5-1.4zm20.3-2.7 5.6-36.9-39.7 22.8 10.3 4.3 20.1-17.6c.7-.7 2.2-.3 2.4.7.2.5.1.9-.2 1.4l-13.3 19.3zm3.3-40.9c3.2-1.8 7.3 1.1 6.7 4.7l-5.6 37c-.3 1.5-1 2.5-2.3 3.2-1.2.7-2.7.7-4 .3l-10.7-4.5-4.1 5.7c-.9 1.1-2 1.7-3.3 1.8-2.7.2-5-1.8-5-4.5v-8l-10.9-4.6c-1.1-.4-2-1.2-2.4-2.3-.5-1.1-.6-2.2-.2-3.3.3-1.1 1-2 2.1-2.6z"/><path d="m900.4 122.4c-6.9 0-13.7 3.8-17.1 9.9-3.6 6-3.6 13.9 0 19.9 3.2 5.4 8.9 9.2 15.2 9.8 6.6.6 13.2-2.1 17.4-7.2-6.9 1.2-13.7-1.5-17.7-7.3-3.7-5.4-3.9-12.8-.5-18.4 1.6-2.7 3.7-4.8 6.4-6.3-1.3-.3-2.5-.4-3.7-.4m0 44.2c-8.6 0-16.8-4.7-21.1-12.2-4.4-7.4-4.4-17.1 0-24.5 5.2-8.8 15.4-13.6 25.5-11.8 2.6.5 4.2 3 3.7 5.6-.3 1.3-1 2.2-2.2 2.9-2 1.1-3.5 2.7-4.7 4.7-2.5 4.1-2.3 9.5.4 13.4 2.8 4.2 8 6.5 13 5.5 2.6-.6 4.8 1.5 5.4 3.9.2 1.3-.1 2.4-1 3.5-4.6 5.7-11.7 9-19 9"/><path d="m948.2 22.1c-.8 0-1.5-.3-2.1-.9-1.9-1.9-.5-5.2 2.1-5.2 2.7 0 4 3.3 2.2 5.2-.6.6-1.3.9-2.2.9m-15.2 0c-.8 0-1.5-.3-2.1-.9-1.9-1.9-.5-5.2 2.2-5.2s4 3.3 2.1 5.2c-.7.6-1.4.9-2.2.9m15.6 7c.8-1 2.2-1.2 3.2-.3.5.4.7.9.8 1.6.1.6-.1 1.2-.5 1.6-1.5 1.7-3.2 3.1-5.2 4-4 1.9-8.7 1.9-12.7 0-2-1-3.7-2.3-5.2-4-.4-.4-.5-1-.5-1.6.1-.6.3-1.2.8-1.6.9-.8 2.4-.7 3.2.3 1 1.1 2.2 2 3.6 2.7 4.4 2 9.4.8 12.5-2.7m-8 13.6c6.8 0 13-3.8 16.5-9.6 3.4-5.8 3.4-13.2 0-19.1-1.7-2.9-4-5.2-7-7-5.8-3.4-13.2-3.4-19.1 0-2.9 1.7-5.2 4-7 7-3.4 5.8-3.4 13.2 0 19.1 1.7 2.9 4 5.2 7 7 3 1.7 6.2 2.6 9.6 2.6m0-42.7c13.2 0 24.1 11.4 23.5 24.6-.2 3.8-1.2 7.5-3.1 10.8-2.1 3.6-5 6.5-8.6 8.6-7.2 4.2-16.4 4.2-23.6 0-3.6-2.1-6.5-5-8.6-8.6-3.4-5.8-4.1-13.1-1.9-19.4 2-6 6.5-10.9 12.2-13.7 3.2-1.5 6.6-2.3 10.1-2.3"/><path d="m666.3 102.8c0-.8-.3-1.5-.9-2.1-1.9-1.9-5.2-.5-5.2 2.2s3.3 4 5.2 2.2c.6-.7.9-1.4.9-2.3zm-9.2 0c0-.8-.3-1.5-.9-2.1-1.9-1.9-5.2-.5-5.2 2.2s3.3 4 5.2 2.2c.6-.7.9-1.4.9-2.3zm-23.5-21.3-7.4 10.7h40.6l-7.4-10.7zm-10 27.4h45.7v-12.2h-45.7zm49.4-15.6c.6.8.9 1.6.9 2.6v13.1c0 2.5-2.1 4.6-4.6 4.6h-45.7c-1.3 0-2.4-.4-3.2-1.3-.9-.9-1.3-2-1.3-3.2v-13.2c0-1 .3-1.8.9-2.6l10-14.4c.4-.6.9-1.1 1.6-1.5.7-.3 1.4-.5 2.1-.5h25.7c.8 0 1.5.2 2.1.5.7.3 1.2.8 1.6 1.5z"/><path d="m707.9 89.7c-.2-1.1-1-1.7-2.1-1.7-5.5.8-10.6 5.2-13.7 9.6-1.8 2.6-2.9 5.1-3.2 7.3-.2 1 .7 2.1 1.7 2.1 1 .2 2.1-.7 2.1-1.7.2-1.7 1-3.5 2.6-5.6 1.4-1.9 3.1-3.7 5-5.1 1.8-1.3 3.8-2.6 6-2.9.6-.1 1-.3 1.3-.7.3-.3.4-.7.3-1.3m16.2-.8c.4-.7.3-1.5-.2-2.5-.8-1.5-2.9-3.3-4.7-2.4-1 .6-2.3 1-3.8 1-.9.1-2.3 0-4.4-.2-2.5-.2-4.4-.3-5.7-.2-2.3.2-4.4.7-6.4 1.5-2.4 1.1-4.7 2.7-7 5-2.2 2.2-3.9 4.5-5 7-.8 2-1.3 4.1-1.5 6.4-.1 1.3 0 3.2.2 5.7.2 2 .3 3.5.2 4.4-.1 1.5-.4 2.8-1 3.8-1.3 2.3 2.6 6.2 4.9 4.9 1-.6 2.3-1 3.8-1 .9-.1 2.4 0 4.4.2 2.5.2 4.4.3 5.7.2 2.3-.2 4.4-.7 6.4-1.5 5.1-2.3 9.6-6.8 11.9-11.9.8-2 1.3-4.1 1.5-6.4.1-1.3 0-3.2-.2-5.7-.2-2-.3-3.5-.2-4.4.1-1.6.5-2.9 1.1-3.9m2.1-7c2.4 2.4 3.6 6.2 1.8 9.3-.9 1.4-.4 3.8-.3 5.3.3 2.7.3 4.9.3 6.5-.2 2.7-.8 5.3-1.8 7.7-2.8 6.3-8.3 11.9-14.6 14.7-2.5 1-5.1 1.6-7.8 1.8-1.6.1-3.7 0-6.5-.3-1.6-.1-3.9-.6-5.3.3-1.4.8-3 1.1-4.7.7-1.7-.3-3.2-1.2-4.6-2.5-2.4-2.4-3.6-6.2-1.8-9.3.9-1.4.4-3.8.3-5.3-.3-2.7-.3-4.9-.3-6.5.2-2.7.8-5.3 1.8-7.7 2.8-6.3 8.3-11.9 14.6-14.7 2.5-1 5.1-1.6 7.8-1.8 1.6-.1 3.7 0 6.5.3 1.6.1 3.9.6 5.3-.3 1.4-.8 3-1.1 4.7-.7 1.8.4 3.3 1.2 4.6 2.5"/><path d="m870.4 164.5c.4.2.6.5.7 1 .3 1.3-1.1 2.4-2.3 1.8l-5-2.9 1.6 4.3c.3 1.1-1 2.7-2.2 1.9-.4-.2-.6-.5-.8-.9l-1.2-6.9-5.5-3.2v6.4l5.3 4.5c.6.6.5 1.5-.1 2.1-.7.6-1.7.5-2.3-.1l-2.9-3.5v5.9c0 2-3.3 2-3.3 0v-5.9l-2.9 3.5c-.6.7-1.6.7-2.2.1s-.7-1.5-.1-2.1l5.3-4.5v-6.4l-5.5 3.2-1.2 6.9c-.9 1.9-3.4.9-3-1.1l1.6-4.3-5 2.9c-.8.4-1.6.1-2.1-.6-.2-.4-.3-.7-.2-1.2.1-.4.3-.7.7-1l5-3-4.5-.8c-.4-.1-.7-.3-1-.7-.5-.7-.3-1.7.4-2.2.4-.2.8-.3 1.2-.2l6.5 2.4 6.2-3.2-6.2-3.2-6.5 2.4c-.5.1-.9 0-1.2-.2-.4-.2-.6-.6-.6-1-.2-.8.5-1.7 1.3-1.9l4.5-.8-5-3c-.4-.2-.6-.5-.7-1-.1-.4-.1-.8.2-1.2.4-.7 1.4-1 2.1-.6l5 2.9-1.6-4.3c-.3-1.1 1-2.7 2.2-1.9.4.2.6.5.8.9l1.2 6.9 5.5 3.2v-6.4l-5.3-4.5c-.6-.6-.5-1.5.1-2.1.7-.6 1.7-.6 2.2.1l2.9 3.5v-5.9c0-2 3.3-2 3.3 0v5.9l2.9-3.5c.6-.7 1.6-.7 2.2-.1s.7 1.5.1 2.1l-5.3 4.5v6.4l5.5-3.2 1.2-6.9c.4-.8 1-1.2 1.9-1 .8.3 1.3 1.2 1.1 2l-1.6 4.3 5-2.9c.8-.4 1.6-.1 2.1.6.2.4.3.7.2 1.2-.1.4-.3.7-.7 1l-5 3 4.5.8c.9.2 1.3 1 1.3 1.9-.1.4-.3.8-.6 1-.4.2-.8.3-1.2.2l-6.5-2.4-6.2 3.2 6.2 3.2 6.5-2.4c.5-.1.9 0 1.2.2.4.2.6.5.6 1 .2.9-.4 1.7-1.2 1.9l-4.5.8z"/><path d="m654.4 155.7c.4.2.6.6.7 1 .2.9-.3 1.8-1.2 2.1-.4.1-.9.1-1.3-.1l-5.5-3.2 1.7 4.7c.1.4.1.9-.2 1.3-.4.8-1.4 1.2-2.2.8-.4-.2-.7-.5-.8-1l-1.3-7.5-6-3.5v7l5.7 4.9c.6.6.6 1.7-.1 2.3-.7.7-1.8.6-2.5-.1l-3.2-3.8v6.4c0 .4-.2.8-.5 1.2-.7.7-1.8.7-2.5 0-.3-.3-.5-.7-.5-1.2v-6.4l-3.2 3.8c-.6.7-1.7.7-2.5.1-.7-.6-.8-1.6-.1-2.3l5.7-4.9v-7l-6 3.5-1.3 7.5c-.2.4-.4.8-.8 1-.8.4-1.8 0-2.2-.7-.2-.4-.3-.9-.2-1.4l1.7-4.7-5.5 3.2c-.4.2-.9.3-1.3.1-.9-.3-1.4-1.2-1.2-2.1.1-.5.4-.8.7-1l5.5-3.2-4.9-.8c-.9-.2-1.5-1.1-1.4-2 .1-.5.3-.8.7-1.1.4-.2.8-.3 1.3-.2l7.1 2.6 6.8-3.5-6.8-3.5-7.1 2.6c-2.2.4-2.8-2.9-.6-3.3l4.9-.8-5.5-3.2c-.4-.2-.6-.6-.7-1-.2-.9.3-1.8 1.2-2.1.4-.1.9-.1 1.3.1l5.5 3.2-1.7-4.7c-.1-.4-.1-.9.2-1.3.2-.4.6-.7 1-.9.4-.1.9-.1 1.2.1.4.2.7.5.8 1l1.3 7.5 6 3.5v-7l-5.7-4.9c-1.6-1.6 1.1-3.7 2.6-2.2l3.2 3.8v-6.4c0-.4.2-.8.5-1.2.7-.7 1.8-.7 2.5 0 .3.3.5.7.5 1.2v6.4l3.2-3.8c.6-.7 1.7-.7 2.5-.1.7.6.8 1.6.1 2.3l-5.7 4.9v7l6-3.5 1.3-7.5c.6-1.2 2.4-1.8 3-.2.2.4.3.9.2 1.3l-1.7 4.7 5.5-3.2c.4-.2.9-.3 1.3-.1.9.3 1.4 1.2 1.2 2.1-.1.5-.4.8-.7 1l-5.5 3.2 4.9.8c.4.1.8.4 1.1.7.6.8.4 1.8-.4 2.4-.4.2-.8.3-1.3.2l-7.1-2.6-6.8 3.5 6.8 3.5 7.1-2.6c.5-.1.9 0 1.3.2 1.2.8.8 2.8-.6 3.1l-4.9.8z"/><path d="m712.8 165.9v-3.5c-4.4-1.6-9.2-1.6-13.6 0l.4 3.9c.1 2.5 2.4 4.4 4.9 4.4h3.5c1.3 0 2.5-.5 3.4-1.4.9-1 1.4-2.1 1.4-3.4zm-29.4.3.4-3.9c-4.4-1.6-9.2-1.6-13.6 0v3.5c0 1.3.5 2.5 1.4 3.4 1 .9 2.1 1.4 3.4 1.4h3.5c1.3 0 2.4-.4 3.3-1.3 1-.8 1.5-1.9 1.6-3.1zm35.3-8.5c.1.5.2 1 .2 1.5v6.7c0 2-.5 3.8-1.5 5.4-2 3.3-5.6 5.5-9.5 5.5h-3.5c-5.7 0-10.5-4.3-10.9-10l-.3-3.7h-3.4l-.3 3.7c-.4 5.7-5.2 10-10.9 10h-3.6c-5.9 0-11-5-11-10.9v-6.7c0-.5.1-1 .2-1.5l4.3-17.3c.6-2.2 2-4.3 4.1-5.3 1.9-1.2 4.6-1.4 6.7-.6l1.5.5c.8.2 1.2 1.2 1 1.9l-.5 1.4c-.2.8-1.2 1.2-1.9 1l-1.3-.4c-2.1-.8-4.5.4-5.1 2.6l-3.7 14.7c6.2-1.8 12.8-1.4 18.7 1.3h7.1c5.9-2.8 12.5-3.2 18.7-1.3l-3.7-14.7c-.6-2.2-2.9-3.3-5.1-2.6l-1.3.4c-.4.1-.8.1-1.1-.1-.4-.2-.6-.5-.8-.9l-.5-1.4c-.1-.4-.1-.8.1-1.1.2-.4.5-.6.9-.8l1.5-.5c1.1-.4 2.2-.5 3.4-.4 2.3.2 4.5 1.4 5.9 3.2.7.9 1.2 2 1.5 3.1z"/><path d="m981.9 100.7h16.4l-4.6-7.4c-.4-.5-.6-1.1-.6-1.7v-15.3h-6.1v15.2c0 .6-.2 1.2-.6 1.7zm28.5 7.9c.9 1.5 1.2 3 1 4.6-.5 3.3-3.3 5.8-6.7 5.8h-29.2c-5.3 0-8.4-5.9-5.7-10.4l11.2-17.9v-14.4h-.8c-.6 0-1.2-.2-1.6-.7-.4-.4-.7-1-.7-1.6v-1.5c0-1.3 1-2.3 2.3-2.3h19.8c1.3 0 2.3 1 2.3 2.3v1.5c0 .6-.2 1.2-.7 1.6-.4.4-1 .7-1.6.7h-.8v14.4z"/><path d="m830.9 46.4-10.2-10.7c-2.9-3.3-2.6-8.2.6-11.2 2.8-2.4 7.3-1.9 9.8.8l1 1.1 1-1.1c2.7-2.7 6.8-3.1 9.9-.8 3.4 2.8 3.6 8 .6 11.2l-10.2 10.7c-.8.7-1.8.7-2.5 0m27.2 7.3c1.4 1.2 1.4 3.5-.1 4.6l-14.1 11.3c-1.1.9-2.4 1.3-3.7 1.3h-33.5c-.9 0-1.5-.6-1.5-1.5v-9c0-.9.6-1.5 1.5-1.5h5.2l4.4-3.6c2-1.6 4.3-2.4 6.9-2.4h15c1.9 0 3.2 1.7 3 3.5-.1.7-.5 1.4-1.1 1.8-.6.5-1.3.7-2.1.7h-7.3c-2 0-2 3 0 3h11.1c1.4 0 2.7-.4 3.7-1.3l8.7-6.9c1-1 2.8-1.1 3.9 0"/><path d="m780.2 77.2h6.1c0 7-3.5 13.8-9.4 17.7-2.9 2-6.2 3.1-9.7 3.5-1-3.9-2.9-7.3-5.6-10.3 1.9-3.3 4.5-6 7.8-8 3.2-1.9 6.8-2.9 10.8-2.9zm-36.6 6.1c3.9 0 7.5 1 10.7 2.9 6.5 3.8 10.7 10.9 10.7 18.5v13.7c0 .9-.6 1.5-1.5 1.5h-3c-.9 0-1.5-.6-1.5-1.5v-13.7c-11.7 0-21.3-9.8-21.3-21.4z"/><path d="m741.8 148.4c-2.1 2.1-5.6 2.4-8 .6-2.5-1.8-3.2-5.3-1.6-8 .5-1 1.3-1.7 2.2-2.2v-16.1c0-.8.3-1.5.9-2.1 1.2-1.2 3.1-1.2 4.3 0 .6.6.9 1.3.9 2.1v16.1c1 .5 1.7 1.2 2.2 2.2 1.4 2.3 1 5.4-.9 7.4m2.3-8c-.3-.6-.9-1.4-1.7-2.3l-.4-.5v-21.1c0-1.3-.4-2.4-1.3-3.2-1.8-1.8-4.7-1.8-6.5 0-.9.9-1.3 2-1.3 3.2v21.1l-.4.5c-.8.9-1.4 1.7-1.7 2.3-1.7 2.9-1 6.6 1.3 9 1.5 1.5 3.3 2.3 5.3 2.3h.1c2.1 0 3.9-.7 5.4-2.2 2.3-2.4 2.9-6.2 1.2-9.1m5.6 3.6c0 2.2-.5 4.3-1.6 6.1-2.2 3.8-6.2 6.1-10.6 6.1h-.1c-4.2 0-8.5-2.4-10.5-6.2-2.6-4.5-2-10.3 1.4-14.2v-19.3c0-2.5.9-4.7 2.7-6.5 3.5-3.5 9.4-3.5 13 0 1.8 1.8 2.7 3.9 2.7 6.5v19.3c1.9 2.5 3 5.2 3 8.2"/><path d="m958.2 91.2c-2.1 2.1-5.6 2.4-8 .6-2.5-1.8-3.2-5.3-1.6-8 .5-1 1.3-1.7 2.2-2.2v-16.1c0-.8.3-1.5.9-2.1 1.2-1.2 3.1-1.2 4.3 0 .6.6.9 1.3.9 2.1v16.1c1 .5 1.7 1.2 2.2 2.2 1.4 2.4 1.1 5.4-.9 7.4m2.4-8c-.3-.6-.9-1.4-1.7-2.3l-.4-.5v-21c0-1.3-.4-2.4-1.3-3.2-1.8-1.8-4.7-1.8-6.5 0-.9.9-1.3 2-1.3 3.2v21.1l-.4.5c-.8.9-1.4 1.7-1.7 2.3-2.8 4.8 1.1 11.2 6.6 11.2h.1c2.1 0 3.9-.7 5.4-2.2 2.2-2.4 2.9-6.2 1.2-9.1m5.5 3.6c0 2.2-.5 4.3-1.6 6.1-2.2 3.8-6.2 6.1-10.6 6.1h-.1c-4.2 0-8.5-2.4-10.5-6.2-2.6-4.5-2-10.3 1.4-14.2v-19.2c0-2.5.9-4.7 2.7-6.5 3.5-3.5 9.4-3.5 13 0 1.8 1.8 2.7 3.9 2.7 6.5v19.3c2 2.4 3 5.1 3 8.1"/><path d="m1002.1 145.7c0-.6-.2-1.2-.7-1.6-.4-.4-1-.7-1.6-.7h-29c-.6 0-1.2.2-1.6.7-.4.4-.7 1-.7 1.6v3.1c0 1.3 1 2.3 2.3 2.3h29c1.3 0 2.3-1 2.3-2.3zm-54.9 4.1c-.9.9-2.4.9-3.2 0l-2.2-2.1c-.9-.9-.9-2.4 0-3.2l14.7-14.8-14.7-14.8c-.9-.9-.9-2.4 0-3.2l2.2-2.1c.9-.9 2.4-.9 3.2 0l18.5 18.5c.9.9.9 2.4 0 3.2z"/><path d="m776.4 146.2h30.5v-12.2h-30.5zm42.7-15.2h-45.7v18.3h45.7v-6.1h3.1v-6.1h-3.1zm1.5-6.1c1.3 0 2.4.4 3.2 1.3.9.9 1.3 2 1.3 3.2v1.5h.8c.6 0 1.2.2 1.6.7.4.4.7 1 .7 1.6v13.8c0 .6-.2 1.2-.7 1.6-.4.4-1 .7-1.6.7h-.8v1.5c0 1.3-.4 2.4-1.3 3.2-.9.9-2 1.3-3.2 1.3h-48.8c-2.5 0-4.5-2-4.5-4.5v-21.4c0-1.3.4-2.4 1.3-3.2.9-.9 2-1.3 3.2-1.3z"/><path d="m760.9 55.6c-.6 0-1.1.5-1.1 1.1v8h-8c-.6 0-1.1.5-1.1 1.1v3.8c0 .6.5 1.1 1.1 1.1h11.8c.6 0 1.2-.2 1.6-.7.4-.4.7-1 .7-1.6v-11.6c0-.6-.5-1.1-1.1-1.1zm-10.3-22.5c0 .6.5 1.1 1.1 1.1h8v8c0 .6.5 1.1 1.1 1.1h3.8c.6 0 1.1-.5 1.1-1.1v-11.7c0-1.3-1-2.3-2.3-2.3h-11.8c-.6 0-1.1.5-1.1 1.1v3.8zm-12.2 32.8c0-.6-.5-1.1-1.1-1.1h-8v-8c0-.6-.5-1.1-1.1-1.1h-3.8c-.6 0-1.1.5-1.1 1.1v11.8c0 .6.2 1.2.7 1.6.4.4 1 .7 1.6.7h11.8c.6 0 1.1-.5 1.1-1.1zm-15.3-35.4c0-.6.2-1.2.7-1.6.4-.4 1-.7 1.6-.7h11.8c.6 0 1.1.5 1.1 1.1v3.8c0 .6-.5 1.1-1.1 1.1h-8v8c0 .6-.5 1.1-1.1 1.1h-3.8c-.6 0-1.1-.5-1.1-1.1z"/><path d="m631.8 228c0-5.6-1.7-11.4-6-15.2-3.6-3.1-8.6-3.1-12.3 0-1.9 1.6-3.4 3.7-4.4 6.4-1.1 2.7-1.6 5.6-1.6 8.8zm-24.4-39.6c0 5.6 1.7 11.4 6 15.2 3.6 3.1 8.6 3.1 12.3 0 1.9-1.6 3.4-3.7 4.4-6.4 1.1-2.7 1.6-5.6 1.6-8.8zm29 0c0 4-.8 7.8-2.3 11.2-1.7 3.8-4 6.7-7 8.6 3 1.9 5.3 4.8 7 8.6 1.5 3.5 2.3 7.2 2.3 11.2h.4c.6 0 1.1.5 1.1 1.1v2.3c0 .6-.5 1.1-1.1 1.1h-34.3c-.6 0-1.1-.5-1.1-1.1v-2.3c0-.6.5-1.1 1.1-1.1h.4c0-4 .8-7.8 2.3-11.2 1.7-3.8 4-6.7 7-8.6-3-1.9-5.3-4.8-7-8.6-1.5-3.5-2.3-7.2-2.3-11.2h-.4c-.6 0-1.1-.5-1.1-1.1v-2.3c0-.6.5-1.1 1.1-1.1h34.3c.6 0 1.1.5 1.1 1.1v2.3c0 .6-.5 1.1-1.1 1.1z"/><path d="m688.4 214.3c-.2 0-.4-.1-.5-.2-.2-.2-.2-.3-.2-.5v-1.6c0-.2.1-.4.2-.5.2-.2.3-.2.5-.2h10.7c.4 0 .8.4.8.8v1.5c0 .2-.1.4-.2.5-.2.2-.3.2-.5.2zm0-6.1c-.2 0-.4-.1-.5-.2-.2-.2-.2-.3-.2-.5v-1.5c0-.2.1-.4.2-.5.2-.2.3-.2.5-.2h10.7c.2 0 .4.1.5.2.2.2.2.3.2.5v1.5c0 .2-.1.4-.2.5-.2.2-.3.2-.5.2zm0-6.1c-.2 0-.4-.1-.5-.2-.2-.2-.2-.3-.2-.5v-1.5c0-.2.1-.4.2-.5.2-.2.3-.2.5-.2h10.7c.2 0 .4.1.5.2.2.2.2.3.2.5v1.5c0 .4-.4.8-.8.8h-10.6zm-14.4 6.1c-3 0-5.6-2.3-6-5.3-.4-2.8 1.3-5.5 3.9-6.5s5.6 0 7.2 2.3c1.6 2.4 1.3 5.7-.7 7.7-1.4 1.2-2.8 1.8-4.4 1.8zm-8.6 12.2c-.6 0-1.1-.2-1.5-.5-.4-.4-.6-.8-.6-1.3v-1.8c0-1.5.6-2.8 1.9-3.9 1.5-1.3 3.8-2.1 5.8-1.3 2 .6 4.1.6 6.1 0 2-.7 4.2 0 5.8 1.3 1.2 1.1 1.9 2.4 1.9 3.9v1.8c0 .5-.2.9-.6 1.3-.4.3-.9.5-1.5.5zm-6.7 4.6h45.7v-33.5h-45.7zm45.8-38.1c2.5 0 4.6 2.1 4.6 4.6v33.5c0 1.3-.4 2.4-1.3 3.2-.9.9-2 1.3-3.2 1.3h-45.7c-1.3 0-2.4-.4-3.2-1.3-.9-.9-1.3-2-1.3-3.2v-33.6c0-2.5 2.1-4.6 4.6-4.6h45.5z"/><path d="m793.2 213.3c1.3 0 2.3-1 2.3-2.3h-4.6c0 1.3 1 2.3 2.3 2.3zm15-6.8c1.7 0 2.3-1.9 1.3-3.1-1.1-1.1-1.9-2.1-2.5-3-.8-1.2-1.3-2.6-1.7-4.3-1-4.3.1-9.1-2.2-13-4.3-7.4-15.3-7.4-19.6 0-2.3 3.9-1.2 8.6-2.2 12.9-.4 1.7-1 3.2-1.7 4.4-.6.8-1.4 1.8-2.5 3-.6.6-.7 1.2-.4 2 .3.7.8 1.1 1.7 1.1zm4.1-6.6c2.6 2.6 3 6.6.3 9.3-1.2 1.2-2.7 1.9-4.5 1.9h-8.9c0 1.7-.6 3.2-1.8 4.3-2.3 2.3-6.3 2.3-8.7 0-1.2-1.2-1.8-2.6-1.8-4.3h-8.9c-2.6 0-5-1.6-6-4-1-2.5-.1-5.2 1.8-7.1.7-.7 1.2-1.3 1.5-1.8.6-.9 1-2 1.2-3.2.4-2.2.4-4.3.5-6.5.1-2.4.7-4.7 1.8-6.8 2.4-4.5 6.7-7.6 11.7-8.4-1.4-1.8-.2-4.2 1.9-4.7 2.6-.6 4.6 2.5 3 4.7 2.5.4 4.8 1.3 6.9 2.8 2 1.5 3.6 3.4 4.8 5.6 1.1 2.1 1.7 4.4 1.8 6.8.1 2.2.1 4.4.5 6.5.3 1.3.7 2.4 1.2 3.2.5.4 1 1 1.7 1.7z"/><path d="m901.3 201.9c.8 0 1.5.3 2.1.9 1.9 1.9.5 5.2-2.1 5.2-2.7 0-4-3.3-2.2-5.2.6-.6 1.3-.9 2.2-.9m-10.7 0c.8 0 1.5.3 2.1.9 1.9 1.9.5 5.2-2.2 5.2s-4-3.3-2.1-5.2c.6-.6 1.4-.9 2.2-.9m-10.7 0c.8 0 1.5.3 2.1.9 1.9 1.9.5 5.2-2.1 5.2-2.7 0-4-3.3-2.2-5.2.7-.6 1.4-.9 2.2-.9m10.7 18.3c6.4 0 13.2-2.4 17.2-7.6 3.5-4.6 3.5-10.7 0-15.2-6-8-18.3-9.5-27.1-5.6-3.1 1.4-5.5 3.2-7.2 5.6-3.9 5.2-3.3 11.9 1.1 16.5l1.9 2.1-1 2.7c-.5 1.3-1.1 2.6-1.9 3.9 1.9-.6 3.7-1.6 5.4-2.9l1.9-1.2 2.2.7c2.5.6 4.9 1 7.5 1m0-35.1c8 0 16.3 3.2 21.1 9.9 4.3 6 4.3 14 0 19.9-2.2 3-5.1 5.4-8.9 7.2-6.5 3.1-14.2 3.4-21.1 1.3-2.4 1.7-5 3-7.8 3.7-1.3.3-2.7.6-4.1.6-1.4.1-2.8.1-3.4-1.3-.2-.4-.2-.8-.1-1.3.3-1.1 1.6-2.3 2.3-3.2 1.3-1.7 2.2-3.4 2.8-5-2.7-2.9-4.6-6.5-5-10.4-.4-4.1.8-8.2 3.2-11.5 2.2-3 5.1-5.4 8.9-7.2 3.6-1.8 7.6-2.7 12.1-2.7"/><path d="m926.1 269.9c0-.6-.5-1.1-1.1-1.1h-13c-.6 0-1.1.5-1.1 1.1v2.7c0 1 .6 1.8 1.5 2.2v.9c0 .6.2 1.2.7 1.6.4.4 1 .7 1.6.7h7.6c.6 0 1.2-.2 1.6-.7.4-.4.7-1 .7-1.6v-.9c.9-.4 1.5-1.2 1.5-2.2zm-13.8-24c0 .4-.1.8-.4 1.1-.6.6-1.6.6-2.2 0-.7-.7-.4-2.2-.2-3.1.2-1 .6-2 1.1-2.8 1.1-1.8 2.8-3.2 4.8-3.9.9-.3 2-.5 3-.5 1.1.1 1.9 1.2 1.4 2.3-.6 1-1.9.7-2.8 1-1.1.3-2 .9-2.8 1.6-1.3 1.2-1.9 2.6-1.9 4.3zm6.1-12.2c-4.3 0-8.4 2.3-10.6 6.1-1.8 3.1-2.3 7.4-.9 10.7 1 2.2 3 3.8 4.3 5.8 1 1.4 1.8 3 2.7 4.9h9c.8-1.8 1.7-3.5 2.7-4.9 1.3-2 3.4-3.6 4.3-5.8 1.4-3.3.9-7.6-.9-10.7-2.2-3.9-6.2-6.1-10.6-6.1zm0-4.6c3 0 5.9.7 8.4 2.2 2.6 1.5 4.6 3.5 6.1 6.1 2.5 4.2 3.1 10.1 1.2 14.7-.5 1-1.4 2.4-2.8 4-1 1.3-1.8 2.4-2.4 3.2-1 1.5-1.8 3.1-2.5 4.9-.1.4-.4.8-.8 1-.4.3-.8.4-1.3.4h-12c-.5 0-1-.1-1.3-.4-.4-.3-.6-.6-.8-1-.7-1.8-1.5-3.4-2.5-4.9-.6-.9-1.4-2-2.4-3.2-1.3-1.7-2.3-3-2.8-4-1.9-4.6-1.3-10.5 1.2-14.7 1.5-2.6 3.5-4.6 6.1-6.1 2.8-1.5 5.6-2.2 8.6-2.2z"/><path d="m991 172.4c-.6 0-1.2.2-1.6.7-1.4 1.4-.4 3.9 1.6 3.9s3-2.5 1.6-3.9c-.5-.5-1-.7-1.6-.7zm13.1 40.4c.3 0 .6-.3.6-.6v-32.4c0-.3-.3-.6-.6-.6h-4v3.4c0 .6-.5 1.1-1.1 1.1h-16c-.6 0-1.1-.5-1.1-1.1v-3.4h-4c-.3 0-.6.3-.6.6v32.4c0 .3.3.6.6.6zm.6-38.1c2.5 0 4.5 2 4.5 4.5v33.6c0 1.3-.4 2.4-1.3 3.2-.9.9-2 1.3-3.2 1.3h-27.5c-2.5 0-4.5-2-4.5-4.5v-33.6c0-1.3.4-2.4 1.3-3.2.9-.9 2-1.3 3.2-1.3h7.6c0-5.3 6.6-8.1 10.4-4.3 1.2 1.2 1.8 2.6 1.8 4.3z"/><path d="m948.2 182.5c-.8 0-1.5-.3-2.1-.9-1.9-1.9-.5-5.2 2.1-5.2 2.7 0 4 3.3 2.2 5.2-.6.6-1.3.9-2.2.9m-15.2 0c-.8 0-1.5-.3-2.1-.9-1.9-1.9-.5-5.2 2.2-5.2s4 3.3 2.1 5.2c-.7.6-1.4.9-2.2.9m15.6 6.9c.8-1 2.2-1.2 3.2-.3.5.4.7.9.8 1.6.1.6-.1 1.2-.5 1.6-1.5 1.7-3.2 3.1-5.2 4-4 1.9-8.7 1.9-12.7 0-2-1-3.7-2.3-5.2-4-.4-.4-.5-1-.5-1.6.1-.6.3-1.2.8-1.6.9-.8 2.4-.7 3.2.3 1 1.1 2.2 2 3.6 2.7 4.4 2.1 9.4.8 12.5-2.7m-8 13.6c6.8 0 13-3.8 16.5-9.6 3.4-5.8 3.4-13.2 0-19.1-1.7-2.9-4-5.2-7-7-5.8-3.4-13.2-3.4-19.1 0-2.9 1.7-5.2 4-7 7-3.4 5.8-3.4 13.2 0 19.1s9.8 9.6 16.6 9.6m0-42.7c13.2 0 24.1 11.4 23.5 24.6-.2 3.8-1.2 7.5-3.1 10.8-2.1 3.6-5 6.5-8.6 8.6-7.2 4.2-16.4 4.2-23.6 0-3.6-2.1-6.5-5-8.6-8.6-4.2-7.2-4.2-16.4 0-23.6 4.2-7.1 12-11.8 20.4-11.8"/><path d="m666.3 263.2c0-.8-.3-1.5-.9-2.1-1.9-1.9-5.2-.5-5.2 2.1 0 2.7 3.3 4 5.2 2.1.6-.6.9-1.3.9-2.1zm-9.2 0c0-.8-.3-1.5-.9-2.1-1.9-1.9-5.2-.5-5.2 2.1 0 2.7 3.3 4 5.2 2.1.6-.6.9-1.3.9-2.1zm-23.5-21.4-7.4 10.7h40.6l-7.4-10.7zm-10 27.5h45.7v-12.2h-45.7zm49.4-15.6c.6.8.9 1.6.9 2.6v13.1c0 2.5-2.1 4.6-4.6 4.6h-45.7c-1.3 0-2.4-.4-3.2-1.3-.9-.9-1.3-2-1.3-3.2v-13.1c0-1 .3-1.8.9-2.6l10-14.4c.8-1.3 2.2-2 3.7-2h25.7c.8 0 1.5.2 2.1.5.7.3 1.2.8 1.6 1.5z"/><path d="m707.9 250.1c-.2-1.1-1-1.7-2.1-1.7-5.5.8-10.6 5.2-13.7 9.6-1.8 2.6-2.9 5.1-3.2 7.3-.2 1 .7 2.1 1.7 2.1 1 .2 2.1-.7 2.1-1.7.2-1.7 1-3.5 2.6-5.6 1.4-1.9 3.1-3.7 5-5.1 1.8-1.3 3.8-2.6 6-2.9.6-.1 1-.3 1.3-.7.3-.3.4-.8.3-1.3m16.2-.9c.4-.7.3-1.5-.2-2.5-.8-1.5-2.9-3.3-4.7-2.4-1 .6-2.3 1-3.8 1-.9.1-2.3 0-4.4-.2-2.5-.2-4.4-.3-5.7-.2-2.3.2-4.4.7-6.4 1.5-2.4 1.1-4.7 2.7-7 5-2.2 2.2-3.9 4.5-5 7-.8 2-1.3 4.1-1.5 6.4-.1 1.3 0 3.2.2 5.7.2 2 .3 3.5.2 4.4-.1 1.5-.4 2.8-1 3.8-1.3 2.3 2.6 6.2 4.9 4.9 1-.6 2.3-1 3.8-1 .9-.1 2.4 0 4.4.2 2.5.2 4.4.3 5.7.2 2.3-.2 4.4-.7 6.4-1.5 5.1-2.3 9.6-6.8 11.9-11.9.8-2 1.3-4.1 1.5-6.4.1-1.3 0-3.2-.2-5.7-.2-2-.3-3.5-.2-4.4.1-1.6.5-2.9 1.1-3.9m2.1-6.9c2.4 2.4 3.6 6.2 1.8 9.3-.9 1.4-.4 3.8-.3 5.3.3 2.7.3 4.9.3 6.5-.2 2.7-.8 5.3-1.8 7.7-2.8 6.3-8.3 11.9-14.6 14.7-2.5 1-5.1 1.6-7.8 1.8-1.6.1-3.7 0-6.5-.3-1.6-.1-3.9-.6-5.3.3-3.1 1.8-6.8.5-9.3-1.8-2.4-2.4-3.6-6.2-1.8-9.3.9-1.4.4-3.8.3-5.3-.3-2.7-.3-4.9-.3-6.5.2-2.7.8-5.3 1.8-7.7 2.8-6.3 8.3-11.9 14.6-14.7 2.5-1 5.1-1.6 7.8-1.8 1.6-.1 3.7 0 6.5.3 1.6.1 3.9.6 5.3-.3 1.4-.8 3-1.1 4.7-.7 1.8.3 3.3 1.1 4.6 2.5"/><path d="m981.9 261.1h16.4l-4.6-7.4c-.4-.5-.6-1.1-.6-1.7v-15.2h-6.1v15.2c0 .6-.2 1.2-.6 1.7zm28.5 7.9c.9 1.5 1.2 3 1 4.6-.6 3.2-3.2 5.8-6.6 5.8h-29.2c-5.3 0-8.4-5.9-5.7-10.4l11.2-17.9v-14.4h-.8c-.6 0-1.2-.2-1.6-.7-.4-.4-.7-1-.7-1.6v-1.5c0-1.3 1-2.3 2.3-2.3h19.8c1.3 0 2.3 1 2.3 2.3v1.5c0 .6-.2 1.2-.7 1.6-.4.4-1 .7-1.6.7h-.8v14.4z"/><path d="m958.2 251.5c-2.1 2.1-5.6 2.4-8 .6-2.5-1.8-3.2-5.3-1.6-8 .5-1 1.3-1.7 2.2-2.2v-16.1c0-.8.3-1.5.9-2.1 1.2-1.2 3.1-1.2 4.3 0 .6.6.9 1.3.9 2.1v16.1c1 .5 1.7 1.2 2.2 2.2 1.4 2.4 1.1 5.5-.9 7.4m2.4-7.9c-.3-.6-.9-1.4-1.7-2.3l-.4-.5v-21.1c0-1.3-.4-2.4-1.3-3.2-1.8-1.8-4.7-1.8-6.5 0-.9.9-1.3 2-1.3 3.2v21.1l-.4.5c-.8.9-1.4 1.7-1.7 2.3-2.8 4.8 1.1 11.2 6.6 11.2h.1c2.1 0 3.9-.7 5.4-2.2 2.2-2.4 2.9-6.1 1.2-9m5.5 3.6c0 2.2-.5 4.3-1.6 6.1-2.2 3.8-6.2 6.1-10.6 6.1h-.1c-4.2 0-8.5-2.4-10.5-6.2-2.6-4.5-2-10.3 1.4-14.2v-19.3c0-2.5.9-4.7 2.7-6.5 3.5-3.5 9.4-3.5 13 0 1.8 1.8 2.7 3.9 2.7 6.5v19.3c2 2.4 3 5.1 3 8.2"/><path d="m760.9 216c-.6 0-1.1.5-1.1 1.1v8h-8c-.6 0-1.1.5-1.1 1.1v3.8c0 .6.5 1.1 1.1 1.1h11.8c.6 0 1.2-.2 1.6-.7.4-.4.7-1 .7-1.6v-11.8c0-.6-.5-1.1-1.1-1.1zm-10.3-22.5c0 .6.5 1.1 1.1 1.1h8v8c0 .6.5 1.1 1.1 1.1h3.8c.6 0 1.1-.5 1.1-1.1v-11.8c0-1.3-1-2.3-2.3-2.3h-11.8c-.6 0-1.1.5-1.1 1.1v3.9zm-12.2 32.8c0-.6-.5-1.1-1.1-1.1h-8v-8c0-.6-.5-1.1-1.1-1.1h-3.8c-.6 0-1.1.5-1.1 1.1v11.8c0 .6.2 1.2.7 1.6.4.4 1 .7 1.6.7h11.8c.6 0 1.1-.5 1.1-1.1zm-15.3-35.5c0-.6.2-1.2.7-1.6.4-.4 1-.7 1.6-.7h11.8c.6 0 1.1.5 1.1 1.1v3.8c0 .6-.5 1.1-1.1 1.1h-8v8c0 .6-.5 1.1-1.1 1.1h-3.8c-.6 0-1.1-.5-1.1-1.1z"/></g></svg>