<svg enable-background="new 0 0 92.8 90.5" height="90.5" viewBox="0 0 92.8 90.5" width="92.8" xmlns="http://www.w3.org/2000/svg" xmlns:xlink="http://www.w3.org/1999/xlink"><mask id="a" height="56.9" maskUnits="userSpaceOnUse" width="56.9" x="0" y=".1"><path d="m-.1.1h57v57h-57z" fill="#fff"/></mask><mask id="b" height="35.2" maskUnits="userSpaceOnUse" width="35.1" x=".6" y=".5"><path d="m.6.5h35.1v35.2h-35.1z" fill="#fff"/></mask><g transform="translate(0 -1)"><path d="m43.5.5c-7.3 7.3-14.5 14.6-21.8 21.9-3.6 3.6-7.1 7.3-10.8 10.9-1.8 1.8-3.6 3.7-5.4 5.5-.9.9-1.8 1.8-2.7 2.7-.4.4-.8.9-1.3 1.3-.4.4-1.2 1-1.5 1.5-.1.3 0 .4.3.7s.5.6.8 1c.6.7 1.1 1.3 1.7 2 1.2 1.3 2.4 2.6 3.7 3.8s2.6 2.3 4 3.4c.7.5 1.4 1.1 2.1 1.6.2.2.6.5.8.4s.6-.6.7-.7c3.6-3.6 7.3-7.3 10.9-10.9 7.2-7.3 14.4-14.6 21.7-21.8 1.8-1.8 3.6-3.7 5.4-5.5.9-.9 1.8-1.8 2.7-2.7.6-.7 1.8-1.4 2-2.4.2-.9-.3-2-.7-2.8-.7-1.4-1.7-2.7-2.7-3.9-2-2.3-4.6-4.8-7.6-5.8-.7-.5-1.7-.8-2.3-.2" fill="#2a3d4e" mask="url(#a)" transform="translate(0 34.467276)"/><path d="m56.5 48.1c-1.5 1.5-5.1-1.4-6.2-2.2-2.7-2.1-5.3-4.9-6.7-8-.3-.7-.8-1.9-.3-2.7.5-.7 1.5-.6 2.2-.4 3.1.9 5.8 3.5 7.8 5.8 1.2 1.4 2.3 2.8 3 4.5.4.8 1 2.2.2 3" fill="#33485b"/><path d="m44.5 60.1c.1-.1.2-.1.3-.2-.9.8-2.6 0-3.4-.5-1.9-1-3.6-2.4-5.2-4-1.5-1.5-2.9-3.2-3.9-5.1-.5-.9-1.3-2.6-.5-3.6-.7.6-1.6 1.4-2.1 2.1-.4.6-.2 1.3 0 2 .7 2.4 2.5 4.6 4.3 6.3 1.8 1.8 3.9 3.7 6.3 4.6.7.3 1.5.6 2.2.3.3-.1.6-.4.8-.7.3-.2.9-.7 1.2-1.2" fill="#ebefef"/><g fill="#eabd46"><path d="m18.1 35.7c0-11.9-5.7-17.6-17.5-17.6 11.8 0 17.5-5.7 17.5-17.6 0 11.9 5.7 17.6 17.5 17.6-11.8 0-17.5 5.7-17.5 17.6" mask="url(#b)" transform="translate(52.875 .514895)"/><path d="m26.6 40.7c0-7-3.3-10.3-10.3-10.3 6.9 0 10.3-3.4 10.3-10.3 0 7 3.3 10.3 10.3 10.3-7 0-10.3 3.3-10.3 10.3"/><path d="m78.9 80.1c0-6.9-3.3-10.2-10.2-10.2 6.9 0 10.2-3.3 10.2-10.2 0 6.9 3.3 10.2 10.2 10.2-6.9-.1-10.2 3.2-10.2 10.2"/></g><g fill="#ebefef"><path d="m85.7 46.1c0-4.8-2.3-7-7-7 4.7 0 7-2.3 7-7 0 4.8 2.3 7 7 7-4.7 0-7 2.3-7 7"/><path d="m45.3 22.8c0-3.2-1.5-4.7-4.7-4.7 3.1 0 4.7-1.5 4.7-4.7 0 3.2 1.5 4.7 4.7 4.7-3.2 0-4.7 1.6-4.7 4.7"/></g></g></svg>