<svg height="252" viewBox="0 0 1072 252" width="1072" xmlns="http://www.w3.org/2000/svg"><g fill="none" fill-rule="evenodd" transform="translate(5)"><g stroke="#f9f7fb"><g stroke-width="10"><path d="m1062 247c0-136.414333-237.736798-247-531-247s-531 110.585667-531 247" transform="matrix(-1 0 0 -1 1062 247)"/><path d="m1012 221.923858c0-122.5651624-215.351035-221.923858-481-221.923858s-481 99.3586956-481 221.923858" transform="matrix(-1 0 0 -1 1062 221.923858)"/><path d="m962 196.847716c0-108.7159917-192.965273-196.847716-431-196.847716s-431 88.1317243-431 196.847716" transform="matrix(-1 0 0 -1 1062 196.847716)"/><path d="m922 171.771574c0-94.8668209-170.57951-171.771574-381-171.771574s-381 76.9047531-381 171.771574" transform="matrix(-1 0 0 -1 1082 171.771574)"/><path d="m872 146.695431c0-81.0176492-148.193748-146.695431-331-146.695431s-331 65.6777818-331 146.695431" transform="matrix(-1 0 0 -1 1082 146.695432)"/></g><g fill="#fff" stroke-width="7"><circle cx="239" cy="60" r="17"/><circle cx="813.5" cy="117.5" r="14.5"/><circle cx="742.5" cy="198.5" r="12.5"/><circle cx="157.5" cy="140.5" r="14.5"/></g></g><circle cx="289.5" cy="129.5" fill="#f9f7fb" r="12.5"/><circle cx="942.5" cy="60.5" fill="#f9f7fb" r="17.5"/><path d="m822 121.619289c0-67.1684784-125.807985-121.619289-281-121.619289s-281 54.4508106-281 121.619289" stroke="#f9f7fb" stroke-width="10" transform="matrix(-1 0 0 -1 1082 121.61929)"/></g></svg>