<svg enable-background="new 0 0 800 150" viewBox="0 0 800 150" xmlns="http://www.w3.org/2000/svg" xmlns:xlink="http://www.w3.org/1999/xlink"><mask id="a" height="162.1" maskUnits="userSpaceOnUse" width="494.2" x="231.7" y="45.4"><path d="m0 0h755v150h-755z" fill="#fff"/></mask><g mask="url(#a)" opacity=".3" transform="translate(45)"><g stroke="#dbe0ea" stroke-width="10" transform="translate(40 8)"><path d="m285.2 156.5-21.9 38h-43.9l-22-38 22-38h43.9z" fill="#dbe0ea"/><path d="m351 118.5-21.9 38h-43.9l-21.9-38 21.9-38h43.9z" fill="none"/><path d="m482.7 118.5-22 38h-43.9l-21.9-38 21.9-38h43.9z" fill="#dbe0ea"/><g fill="none"><path d="m416.8 80.4-21.9 38h-43.9l-21.9-38 21.9-38h43.9z"/><path d="m548.5 80.4-22 38h-43.8l-22-38 22-38h43.8z"/><path d="m416.8 156.5-21.9 38h-43.9l-21.9-38 21.9-38h43.9z"/><path d="m548.5 156.5-22 38h-43.8l-22-38 22-38h43.8z"/><path d="m614.3 118.5-22 38h-43.8l-22-38 22-38h43.8z"/><path d="m680.1 156.5-21.9 38h-43.9l-22-38 22-38h43.9z"/></g></g></g></svg>