<svg enable-background="new 0 0 1058 274" viewBox="0 0 1058 274" xmlns="http://www.w3.org/2000/svg"><g stroke="#f9f7fb" stroke-width="8" transform="translate(4)"><path d="m60 82-15 26h-30l-15-26 15-26h30z" fill="none"/><path d="m150 82-15 26h-30l-15-26 15-26h30z" fill="none"/><path d="m195 56-15 26h-30l-15-26 15-26h30z" fill="none"/><path d="m285 56-15 26h-30l-15-26 15-26h30z" fill="none"/><path d="m240 30-15 26h-30l-15-26 15-26h30z" fill="none"/><path d="m330 30-15 26h-30l-15-26 15-26h30z" fill="none"/><path d="m60 30-15 26h-30l-15-26 15-26h30z" fill="none"/><path d="m195 108-15 26h-30l-15-26 15-26h30z" fill="#f9f7fb"/><path d="m195 160-15 26h-30l-15-26 15-26h30z" fill="#f9f7fb"/><path d="m195 212-15 26h-30l-15-26 15-26h30z" fill="none"/><path d="m285 108-15 26h-30l-15-26 15-26h30z" fill="#f9f7fb"/><path d="m285 160-15 26h-30l-15-26 15-26h30z" fill="#f9f7fb"/><path d="m105 108-15 26h-30l-15-26 15-26h30z" fill="none"/><path d="m105 160-15 26h-30l-15-26 15-26h30z" fill="none"/><path d="m105 212-15 26h-30l-15-26 15-26h30z" fill="none"/><path d="m240 82-15 26h-30l-15-26 15-26h30z" fill="#f9f7fb"/><path d="m330 82-15 26h-30l-15-26 15-26h30z" fill="none"/><path d="m240 134-15 26h-30l-15-26 15-26h30z" fill="none"/><path d="m240 186-15 26h-30l-15-26 15-26h30z" fill="none"/><path d="m330 134-15 26h-30l-15-26 15-26h30z" fill="none"/><path d="m330 186-15 26h-30l-15-26 15-26h30z" fill="none"/><path d="m330 238-15 26h-30l-15-26 15-26h30z" fill="none"/><path d="m375 56-15 26h-30l-15-26 15-26h30z" fill="none"/><path d="m375 108-15 26h-30l-15-26 15-26h30z" fill="none"/><path d="m375 160-15 26h-30l-15-26 15-26h30z" fill="none"/><path d="m375 212-15 26h-30l-15-26 15-26h30z" fill="none"/><path d="m420 82-15 26h-30l-15-26 15-26h30z" fill="none"/><path d="m420 134-15 26h-30l-15-26 15-26h30z" fill="#f9f7fb"/><path d="m420 186-15 26h-30l-15-26 15-26h30z" fill="none"/><path d="m420 238-15 26h-30l-15-26 15-26h30z" fill="none"/><path d="m465 108-15 26h-30l-15-26 15-26h30z" fill="#f9f7fb"/><path d="m465 160-15 26h-30l-15-26 15-26h30z" fill="none"/><path d="m465 212-15 26h-30l-15-26 15-26h30z" fill="none"/><path d="m510 82-15 26h-30l-15-26 15-26h30z" fill="none"/><path d="m510 134-15 26h-30l-15-26 15-26h30z" fill="none"/><path d="m510 186-15 26h-30l-15-26 15-26h30z" fill="none"/><path d="m510 238-15 26h-30l-15-26 15-26h30z" fill="none"/><path d="m555 56-15 26h-30l-15-26 15-26h30z" fill="none"/><path d="m600 30-15 26h-30l-15-26 15-26h30z" fill="none"/><path d="m555 108-15 26h-30l-15-26 15-26h30z" fill="none"/><path d="m555 160-15 26h-30l-15-26 15-26h30z" fill="none"/><path d="m555 212-15 26h-30l-15-26 15-26h30z" fill="none"/><path d="m600 82-15 26h-30l-15-26 15-26h30z" fill="#f9f7fb"/><g fill="none"><path d="m600 134-15 26h-30l-15-26 15-26h30z"/><path d="m600 186-15 26h-30l-15-26 15-26h30z"/><path d="m600 238-15 26h-30l-15-26 15-26h30z"/><path d="m645 56-15 26h-30l-15-26 15-26h30z"/><path d="m690 30-15 26h-30l-15-26 15-26h30z"/><path d="m645 108-15 26h-30l-15-26 15-26h30z"/><path d="m645 160-15 26h-30l-15-26 15-26h30z"/><path d="m690 82-15 26h-30l-15-26 15-26h30z"/><path d="m690 134-15 26h-30l-15-26 15-26h30z"/><path d="m735 56-15 26h-30l-15-26 15-26h30z"/><path d="m780 30-15 26h-30l-15-26 15-26h30z"/><path d="m735 108-15 26h-30l-15-26 15-26h30z"/><path d="m735 160-15 26h-30l-15-26 15-26h30z"/><path d="m735 212-15 26h-30l-15-26 15-26h30z"/><path d="m780 82-15 26h-30l-15-26 15-26h30z"/></g><path d="m780 134-15 26h-30l-15-26 15-26h30z" fill="#f9f7fb"/><path d="m780 186-15 26h-30l-15-26 15-26h30z" fill="none"/><path d="m780 238-15 26h-30l-15-26 15-26h30z" fill="none"/><path d="m825 56-15 26h-30l-15-26 15-26h30z" fill="none"/><path d="m825 108-15 26h-30l-15-26 15-26h30z" fill="none"/><path d="m825 160-15 26h-30l-15-26 15-26h30z" fill="#f9f7fb"/><path d="m825 212-15 26h-30l-15-26 15-26h30z" fill="none"/><path d="m870 82-15 26h-30l-15-26 15-26h30z" fill="none"/><path d="m870 134-15 26h-30l-15-26 15-26h30z" fill="none"/><path d="m870 186-15 26h-30l-15-26 15-26h30z" fill="none"/><path d="m960 30-15 26h-30l-15-26 15-26h30z" fill="none"/><path d="m915 108-15 26h-30l-15-26 15-26h30z" fill="none"/><path d="m915 160-15 26h-30l-15-26 15-26h30z" fill="none"/><path d="m915 212-15 26h-30l-15-26 15-26h30z" fill="none"/><path d="m960 82-15 26h-30l-15-26 15-26h30z" fill="none"/><path d="m960 134-15 26h-30l-15-26 15-26h30z" fill="none"/><path d="m960 186-15 26h-30l-15-26 15-26h30z" fill="none"/><path d="m960 238-15 26h-30l-15-26 15-26h30z" fill="none"/><path d="m1005 56-15 26h-30l-15-26 15-26h30z" fill="none"/><path d="m1050 30-15 26h-30l-15-26 15-26h30z" fill="none"/><path d="m1005 108-15 26h-30l-15-26 15-26h30z" fill="#f9f7fb"/><path d="m1005 160-15 26h-30l-15-26 15-26h30z" fill="none"/><path d="m1005 212-15 26h-30l-15-26 15-26h30z" fill="none"/><path d="m1050 82-15 26h-30l-15-26 15-26h30z" fill="#f9f7fb"/><path d="m1050 134-15 26h-30l-15-26 15-26h30z" fill="#f9f7fb"/><path d="m1050 186-15 26h-30l-15-26 15-26h30z" fill="none"/><path d="m1050 238-15 26h-30l-15-26 15-26h30z" fill="none"/><path d="m150 134-15 26h-30l-15-26 15-26h30z" fill="none"/><path d="m150 186-15 26h-30l-15-26 15-26h30z" fill="none"/><path d="m150 238-15 26h-30l-15-26 15-26h30z" fill="#f9f7fb"/><path d="m60 134-15 26h-30l-15-26 15-26h30z" fill="none"/><path d="m60 186-15 26h-30l-15-26 15-26h30z" fill="#f9f7fb"/><path d="m60 238-15 26h-30l-15-26 15-26h30z" fill="none"/></g><g opacity=".1" transform="translate(29 138)"><path d="m95 136 14-48.1 30-18.9z" fill="#353c48"/><path d="m145 65.5 18.4-11.5 22.6 18.2-9.8 26.8-3.2-25.6z" fill="#a51d3c"/><path d="m0 0 95.2 54.9 12.5 26.1 84.3-51.8-83.4-2.7z" fill="#a51d3c"/><path d="m192 28.5-27 16.6 18.7 14.9 61.3-41z" fill="#353c48"/><path d="m244.9 19-25.9 17.2 16.4 2.3 15.2 20.5 1.1-17.6 26.3-10.4z" fill="#a51d3c"/></g><g opacity=".1" transform="translate(751 24)"><path d="m95 136 14-48.1 30-18.9z" fill="#353c48"/><path d="m145 65.5 18.4-11.5 22.6 18.2-9.8 26.8-3.2-25.6z" fill="#a51d3c"/><path d="m0 0 95.2 54.9 12.5 26.1 84.3-51.8-83.4-2.7z" fill="#a51d3c"/><path d="m192 28.5-27 16.6 18.7 14.9 61.3-41z" fill="#353c48"/><path d="m244.9 19-25.9 17.2 16.4 2.3 15.2 20.5 1.1-17.6 26.3-10.4z" fill="#a51d3c"/></g></svg>