<svg enable-background="new 0 0 58 58" viewBox="0 0 58 58" xmlns="http://www.w3.org/2000/svg"><path d="m43.4 3.8c-.9-.5-1.7-.9-2.6-1.3-4.7-2.1-9.8-2.9-14.9-2.3-1 .1-1.9.2-2.8.4-8.7 1.8-16 7.5-19.9 15.2-.4.7-.7 1.5-1.1 2.3-.8 2-1.4 4.1-1.8 6.2-.2 1.1-.3 2.1-.3 3.2-.4 8.4 2.9 16.6 8.9 22.4.7.7 1.4 1.3 2.2 1.9 8.1 6.4 19.3 7.9 28.9 4 .9-.4 1.7-.8 2.6-1.2 1.2-.6 2.3-1.3 3.4-2.1.7-.5 1.3-1 2-1.6 4.1-3.6 7.2-8.2 8.8-13.6.3-1 .6-2.1.8-3.2 2.1-11.9-3.6-24.2-14.2-30.3m-16.4 39.8c-.7 0-1.3.2-1.8.5-6.1-7-8.9-16.4-7.8-25.7 1.4-.1 2.5-1 3-2.2 7.8 1.6 14.6 6.1 19.3 12.4-1.3 1.5-1.1 3.8.3 5.1-2.6 4.4-6.1 8.2-10.4 11-.7-.7-1.6-1.1-2.6-1.1m15.7-16.2c-.6-.1-1.1 0-1.7.2-4.7-5.9-11.4-10.3-19.1-12.1 6.8-.8 13.8.5 19.8 3.7-.6 1.7.4 3.6 2.1 4.3-.3 1.3-.7 2.6-1.1 3.9m-13.3-23.6c5.1 0 9.9 1.6 13.9 4.3.9 2.9 1.4 5.9 1.4 9-.6.1-1.2.5-1.7.9-6.8-3.9-14.8-5.4-22.6-4.1-.3-.6-.8-1.2-1.4-1.5.9-2.8 2.2-5.4 3.8-7.8 2.1-.5 4.3-.8 6.6-.8m-9.4 1.9c-1.1 2-2.1 4.2-2.8 6.4-1.6 0-3 1.1-3.5 2.6-1.7 0-3.5.2-5.1.4 2.8-4.1 6.7-7.5 11.4-9.4m-7.6 10.5c-2.4 1-4.6 2.3-6.7 3.8.4-1.1.9-2.1 1.5-3.1 1.7-.4 3.4-.6 5.2-.7m-8.6 12.9c0-2.1.3-4.2.7-6.1 2.8-2.5 5.9-4.4 9.4-5.8.4.6.9 1.1 1.5 1.4-1.2 9.8 1.8 19.9 8.3 27.4-.4.8-.6 1.7-.5 2.5-2.7 1-5.6 1.7-8.6 2-6.5-4.8-10.8-12.6-10.8-21.4m24.9 25.1c-4.2 0-8.1-1.1-11.6-2.9 2.3-.4 4.6-1 6.7-1.8 1.2 1.5 3.3 1.8 4.8.7 1.7 1.3 3.6 2.5 5.6 3.4-1.7.4-3.6.6-5.5.6m9-1c-2.6-1-5.1-2.4-7.3-4 .4-.8.5-1.6.2-2.5 4.6-2.9 8.4-6.9 11.2-11.5.6.1 1.1.1 1.7 0 1.8 3.9 2.9 8.2 3.1 12.8-2.5 2.3-5.6 4.1-8.9 5.2m10.4-7.6c-.3-4.2-1.4-8.3-3.1-12 1.6-1.5 1.5-4.3-.3-5.6.5-1.5.9-3 1.1-4.6.6-.1 1.2-.3 1.7-.7 2.7 2.4 4.9 5.3 6.7 8.6-.6 5.5-2.8 10.5-6.1 14.3m.5-23.8c.8-1.9-.1-4.4-2.1-5 0-2.5-.3-4.9-.8-7.2 5.1 4.6 8.4 11.4 8.6 19-1.7-2.6-3.6-4.9-5.7-6.8"/></svg>