<svg enable-background="new 0 0 53 48" viewBox="0 0 53 48" xmlns="http://www.w3.org/2000/svg"><path d="m30.8 47.6c0-7.3-4.2-12.6-10-14.6v-.5c.2-.1.5-.1.7-.2 2.9-1 5.2-2.8 6.9-5.1l-7.5-3.6 10.4-7.3s-.2-.5-.4-1.2l2.4-1.7c.2-.1.3-.3.4-.6 0-.2-.1-.5-.3-.6l-4.7-3.2c-3-7.1-11-10.7-18.4-8.1-7.5 2.6-11.5 11-8.8 18.6l1.3 3.8c1.1 3.2 3.3 5.8 6 7.5v2.6c-5.2 2.3-8.8 7.4-8.8 14.2zm7-30.9c-.2.1-.3.3-.2.5l.4.9c0 .1.1.2.2.2h.3l13.6-6.7c.2-.1.3-.3.2-.5l-.6-1.7c0-.1-.1-.2-.2-.2s-.2 0-.3 0zm.2 8.6-.4.9c-.1.2 0 .4.2.5l13.4 7.5c.1.1.2.1.3 0 .1 0 .2-.1.2-.2l.6-1.7c.1-.2 0-.4-.2-.5l-13.6-6.7c-.1 0-.2-.1-.3 0 0 0-.1.1-.2.2z" fill="#fff"/></svg>