<svg enable-background="new 0 0 63 63" viewBox="0 0 63 63" xmlns="http://www.w3.org/2000/svg"><g transform="translate(-20 -15)"><path d="m20 15h60v60h-60z" fill="none"/><g fill="#fff"><path d="m58 54h-12v13h-19.9c-2.8 0-5.1-2.3-5.1-5.1v-40.8c0-2.8 2.3-5.1 5.1-5.1h26.7c2.8 0 5.1 2.3 5.1 5.1v32.9zm-34-16v3h31v-3zm4-15v6h2v-6zm0 25v6h2v-6z"/><path d="m80.1 48.1c.6.8.9 1.8.9 2.9v19.9c0 2.8-2.1 5.1-4.8 5.1h-26.4c-2.7 0-4.8-2.3-4.8-5.1v-19.9c0-1.1.3-2.1.9-2.9.9-1.3 2.3-2.1 3.9-2.1h26.4c1.5 0 3 .8 3.9 2.1zm-6.1 9.9h-22v10h22z" stroke="#e5e9f1" stroke-width="4"/></g></g></svg>