<svg enable-background="new 0 0 60 60" viewBox="0 0 60 60" xmlns="http://www.w3.org/2000/svg"><g transform="translate(-20 -15)"><path d="m20 15h60v60h-60z" fill="none"/><g fill="#fff"><path d="m51.4 18.2c.4.5.6 1.1.6 1.8v.1 19.8c0 1.7-1.3 3.1-2.8 3.1h-26.4c-1.6 0-2.8-1.4-2.8-3.1v-19.8-.1c0-.7.2-1.3.6-1.8.5-.8 1.3-1.2 2.3-1.2h26.4c.8 0 1.6.5 2.1 1.2zm-2.4 6.8h-26v14h26zm-24-2c2.6 0 2.6-4 0-4s-2.6 4 0 4zm5 0c2.6 0 2.6-4 0-4s-2.6 4 0 4zm5 0c2.6 0 2.6-4 0-4s-2.6 4 0 4z"/><path d="m26.9 50 4.6 4.6c.7.7.2 2-.8 2h-2.9c.1 3.1 2 6 4.9 7.2 1.3.6 2.9.8 4.4.6.8-.1 1.5-.3 2.2-.6.5-.2 1.2-.9 1.6-.4l2 2c.2.2.2.7-.1.9-3.6 2.5-8.5 2.8-12.4.7-3.8-2-6.4-6.1-6.4-10.4h-2.5c-1 0-1.5-1.3-.8-2l4.6-4.6c.4-.5 1.2-.5 1.6 0z"/><path d="m57 53h13v13h-13zm0-7h3v5h-3zm15 7h5v3h-5zm-22 0h5v3h-5zm22 5h5v3h-5zm-22 0h5v3h-5zm22 5h5v3h-5zm-22 0h5v3h-5zm7 5h3v5h-3zm5-22h3v5h-3zm0 22h3v5h-3zm5-22h3v5h-3zm0 22h3v5h-3zm-8-12c1.3 0 1.3-2 0-2s-1.3 2 0 2zm9 0c1.3 0 1.3-2 0-2s-1.3 2 0 2zm-9 9c1.3 0 1.3-2 0-2s-1.3 2 0 2zm9 0c1.3 0 1.3-2 0-2s-1.3 2 0 2z"/><path d="m71.5 34.5c-.1-3.1-2-6-4.9-7.2-1.3-.6-2.9-.8-4.4-.6-.8.1-1.5.3-2.2.6-.5.2-1.2.9-1.6.4l-2-2c-.2-.2-.2-.7.1-.9 3.6-2.5 8.5-2.8 12.4-.7 3.8 2 6.4 6.1 6.4 10.4h2.5c1 0 1.5 1.3.8 2l-4.6 4.6c-.4.4-1.2.5-1.7 0l-4.6-4.6c-.7-.7-.2-2 .8-2z"/></g></g></svg>