<svg height="58" viewBox="0 0 60 58" width="60" xmlns="http://www.w3.org/2000/svg"><g fill="none" fill-rule="evenodd" transform="translate(0 4)"><rect height="30.086957" rx="2" stroke="#fff" stroke-width="4" width="44.695652" x="2" y="21.478261"/><g fill="#fff"><path d="m8.52173913 28h12.17391307v12.173913h-12.17391307zm15.82608697 0h15.8260869v2.4347826h-15.8260869zm0 4.8695652h15.8260869v2.4347826h-15.8260869zm0 4.8695652h15.8260869v2.4347826h-15.8260869z"/><path d="m51.8115942 13.483125v7.8465851c0 1.1418581-.4241672 2.1719785-1.2293553 2.9771665-.805188.8051881-1.8353084 1.2293553-2.9771664 1.2293553h-16.1811595c-1.141858 0-2.1719784-.4241672-2.9771664-1.2293553-.8051881-.805188-1.2293553-1.8353084-1.2293553-2.9771665v-8.8260869c0-1.1418581.4241672-2.1719784 1.2293553-2.97716647.805188-.80518805 1.8353084-1.22935528 2.9771664-1.22935528h8.2971015v-1.26381341c0-1.61080407.4082683-3.12438471 1.2166022-4.50446608.7954111-1.3580182 1.8737238-2.45593675 3.2141787-3.27186581 1.3739267-.83630319 2.9063053-1.25695615 4.5565379-1.25695615 1.6108041 0 3.1243848.40826835 4.5044661 1.2166022 1.3682368.80139631 2.4648543 1.89801375 3.2662506 3.26625055.8083338 1.38008137 1.2166022 2.89366202 1.2166022 4.50446609v3.67753626c0 .8353972-.3169053 1.6050244-.9075709 2.19569-.5906655.5906655-1.3602928.9075708-2.19569.9075708h-1.4710145c-.4632525 0-.9062805-.0974493-1.3097826-.2849909z" stroke="#e5e9f1" stroke-width="4"/></g></g></svg>