<svg enable-background="new 0 0 62 48" viewBox="0 0 62 48" xmlns="http://www.w3.org/2000/svg"><g fill="#fff" transform="translate(-221 -3037)"><path d="m221 3068h48v5h-48zm27.8-7.9c.9 0 1.3 1.1.7 1.7l-3.5 3.5c-.4.4-1 .4-1.4 0l-3.5-3.5c-.6-.6-.2-1.7.7-1.7h1.9v-10h-1.9c-.9 0-1.3-1.1-.7-1.7l3.5-3.5c.4-.4 1-.4 1.4 0l3.5 3.5c.6.6.2 1.7-.7 1.7h-1.9v10zm-27.8-23.1h48v5h-48z"/><path d="m266.4 3065v1.2c0-.2.1-.4.2-.6 0-.2-.1-.4-.2-.6zm-2.3 0h-1.1v1.2h1.2v-1.2zm-1.1 3.4c.2.1.4.1.6.3.2-.1.4-.2.6-.2h-1.2zm-2.3-3.4c-.1.2-.1.4-.3.6.1.2.2.4.2.6v-1.2zm3.4-2.3c-.2-.1-.4-.1-.6-.3-.2.1-.4.2-.6.2h1.2zm2.9 6.3v.8c0 1.4-1.2 2.6-2.6 2.6h-1.6c-1.4 0-2.6-1.2-2.6-2.6v-.8h-.8c-1.4 0-2.6-1.2-2.6-2.6v-1.6c0-1.4 1.2-2.6 2.6-2.6h.8v-.8c0-1.4 1.2-2.6 2.6-2.6h1.6c1.4 0 2.6 1.2 2.6 2.6v.8h.8c1.4 0 2.6 1.2 2.6 2.6v1.6c0 1.4-1.2 2.6-2.6 2.6zm2 7.9c-3.7 1.8-8.2 1.6-11.7-.5-1.9-1.1-3.4-2.6-4.5-4.5-2.3-3.8-2.3-8.8 0-12.6 1.1-1.9 2.6-3.4 4.5-4.5 3.8-2.3 8.8-2.3 12.6 0 1.9 1.1 3.4 2.6 4.5 4.5 2.1 3.5 2.3 8 .5 11.7 0 0 0 0 .1.1l5.1 5.1c1.2 1.2 1.2 3.3 0 4.6l-1.4 1.4c-1.2 1.2-3.3 1.2-4.6 0zm-.5-11.3c0-.9-.2-1.7-.7-2.4-.5-.8-1.1-1.4-1.8-1.8-1.5-.9-3.4-.9-4.9 0-.8.5-1.4 1.1-1.8 1.8-.9 1.5-.9 3.4 0 4.9.5.8 1.1 1.4 1.8 1.8 1.5.9 3.4.9 4.9 0 .8-.5 1.4-1.1 1.8-1.8.5-.8.7-1.6.7-2.5z" stroke="#e5e9f1" stroke-width="4"/></g></svg>