<svg enable-background="new 0 0 58 58" viewBox="0 0 58 58" xmlns="http://www.w3.org/2000/svg"><path d="m29 0c12.1 0 23.1 7.7 27.3 19.1s.6 24.5-8.8 32.3c-9.4 7.7-23 8.8-33.4 2.5-10.4-6.3-15.9-18.8-13.5-30.7 2.4-11.7 12.1-21 23.9-22.9 1.4-.2 3-.3 4.5-.3zm-4 31.5c.6.3 1.3-.2 2-.1.3.1.7.5.9 0 .1-.3-.3-.6-.1-.9.1.6.5.8 1.1.3.3.3 1 .2 1.3.4.4.2.5.5.9 0 .5.7.4 1.9 1 2.5.8.8.7-.8.6-1.2-.2-.2.1-.9-.1-1.2-.3-.5-1-.3-.7-1.1.4-1.1 3-1.4 2.5-2.8.2 0 .3-.2.4-.3-.1 0-.6-.4-.6-.4.3-.2.2-.4.1-.6.4-.2.2-.6.6-.8.4.6 1.2-.1.8-.5.4-.5 1.2-.3 1.5-.8.5.1.3-.5.4-.8.2-.5.7-.5 1.1-.7 0 0 .9-.5.6-.6.6.1 1.9-.6.9-1.2.1-.3-.3-.5-.7-.6.2-.1 1 .1 1-.3 0-.3-.7-.4-.9-.4-.4 0-.9.2-1.2.5-.3.2-.5.6-.9.7.3-.1.3-.7.5-.9.4-.5 1.1-.7 1.6-.8.9-.2 2.3-.6 3.1.2-.2-.2.9-1 1.1-1 .8-.3 1-.3 1-1.2-.6.1-.9-.5-.9-1.1 0 0-.1.2-.2.3 0-.4-.4-.2-.6-.2-.4 0-.6 0-.9-.3-.2-.2-.2-.5-.3-.8-.2-.4-.3-.5-.6-.9-.4-.5-.5-1.3-1.1-.7-.1.1-.1.3-.3.4s-.1-.1-.3 0c-.4.2-.7.3-1.1.4.5-.2-.4-.6-.7-.5.5-.2.3-.7 0-1h.2c-.1-.4-1.3-.8-1.7-1-.5-.2-1.7-.6-2.2-.3-.6.3.1 1.3-.1 1.8-.2.4-.4.4-.2.8.2.2.5.3.7.5.6.9-.8 1.1-1.1 1.7-.5.9 1 1.3-.1 1.9-.8.4-1.2-.3-1.5-1-.1-.4-.2-1-.6-1.2-.2-.1-.9-.2-1.1 0-.5-1.2-2.7-1.3-3.7-1.1.3 0-.1-1.2-.7-1 .4-.7.2-1.4.7-2.1.1-.1.8-1 .6-1 .7.1 1.4.1 1.9-.4.4-.4.6-1.4 1.3-1.5.5 0 1.1.7 1.6.3.3-.3.2-.8-.1-1.1.5 0 0-.9-.3-1-.2-.1-1.4.3-.8.5-.3-.1-.8 1.3-1.3 1.1-.6-.2-.7-2.2-1.4-.7.2-.5-1-.8-1.3-.9.8-.2-.8-.8-1.3-.8-.7 0-1.1.6-.4 1 .3.2 1.5.3 1.2.9-.1.2-.8.2-.9.4-.2.3.2.8-.1 1.1-.3-.3-.3-.9-.6-1.2.2.3-1.4.1-1.3.1-.5 0-1.4.4-1.8-.1-.1-.2-.1-1.1.1-.9-.3-.3-.6-.5-.8-.7-1.2.4-2.4.9-3.5 1.5.8.2 2-1.4 2.9-.8 0-.1.1-.2.2-.2.3.3.5.6.7.9-.5 0-1.8 0-2 .6.1.2.3.5.2.7-1-.7-1.7-1.4-2.9-.6-1.1.7-2.2 1.4-3.2 2.2-2 1.6-3.7 3.6-5.1 5.8.1.1.5.2.5.4.1.1 0 .3.1.4.2.3.1.5.5.2.2.2.3.5.1.7 0 0 3.7 1.7 2.1 2.5-.8-1.5-1 .7-.3.7-.5 0-.6 2.6-.4 2.9-.1.5.3 2.2 1 2-.5.1.8 1.7 1 1.9.5.4 1.1.6 1.5 1.1s.4 1.3.9 1.7c-.1.5.8 1 .7 1.6-.1 0-.1 0-.2.1.2.5.9.5 1.2 1 .1.3 0 1 .5.9.1-.9-.5-1.6-.9-2.3-.5-.7-.7-1.4-1-2.2.5.1.7.3.9.6.3.6.4 1.1.9 1.6.1.1 1.8 2 1.3 2 1.5 0 1.5 2.1 1.9 3 .4 1 2.1 1.7 3.1 2.1 1.1.5 2.1-.4 3 .6.6.7 1.8 1.7 2.9 1.2-.2.1.5 1.2.6 1.4.4.7 1.1.9 1.6 1.5.1-.1.2-.2.2-.3-.1.4.5 1.1.9 1.1.5 0 .6-.8.6-1.2-.8.4-1.4 0-1.8-.7-.1-.2-.5-.8-.4-1.1.2-.5.6 0 .5-.8-.2-.8-.6-1.1-1-1.8-.2.5-1 .3-1.2 0 0 .1-.1.3-.1.5-.2 0-.4 0-.6 0 .1-.7.1-1.3.4-1.9.1-.3.6-.8.4-1.2-.2-.5-1.1-.3-1.4-.1-.5.4-.3 1-.7 1.4-.8.9-2.4.1-2.8-.8-.3-.6-.5-1.3-.4-1.9 0-.9.4-1.7 0-2.5.3-.2.4-.6.7-.8.3-.1.5.1.6-.3-.2-.3-.3-.4-.4-.4zm14.1-17.5c-.1 0 0 0 0 0zm-6 38c5-.9 9.5-3.5 12.9-7.2-.3-.3-1.4-.5-1.8-.6.1-.8-1.1-1.3-1.6-1.7-.3-.3-.7-.4-1.1-.3-.1 0-.8.3-.7.5-.6-.5-1.3-.9-2-1.2-1-.5-.9.6-1.2 1.2-.4-.4.8-1.8-.5-1.5-.9.3-1.6 1.3-2 2-.1-.3-.7-.2-.8-.5.1.8.2 1.6.3 2.4.1.6.2 1.2-.1 1.8-.2.5-2.5 2.5-.9 2.9 0 .4-.3.7-.5 1.1-.1.4-.1.7 0 1.1z" fill="#fff"/></svg>