<svg enable-background="new 0 0 645 160.5" height="160.5" viewBox="0 0 645 160.5" width="645" xmlns="http://www.w3.org/2000/svg"><path d="m90.7 129.7 13.4-46.1 28.7-18.1z" fill="#353c48"/><path d="m137.3 61.8 17.7-10.9 21.7 17.4-9.5 25.5-3-24.4z" fill="#a51d3c"/><path d="m0 0 90.1 52.2 11.9 24.8 79.9-49.2-79.1-2.6z" fill="#a51d3c"/><path d="m181.9 27.8-25.8 15.9 17.8 14.3 58.7-39.3z" fill="#353c48"/><path d="m232.6 18.7-24.4 16.4 15.4 2.1 14.4 19.5 1.1-16.6 24.8-10z" fill="#a51d3c"/><g fill="#353c48"><path d="m154.6 159.9h-10.2l-12.1-52.9h11.5l7 34.7 10-34.7h9.6l10.3 35 7-35h11.6l-12.2 52.8h-10.1l-11.2-36.4z"/><path d="m232.2 154c-2.7 4.7-7.1 6.5-14 6.5-11.5 0-17-7.4-17-17.3v-5.2c0-11.6 5.8-17.1 15.8-17.1 10.8 0 15.8 6.3 15.8 17.9v4.4h-21.8c.1 5.3 1.8 9.1 7.2 9.1 4.1 0 5.4-1.2 6.8-3.3zm-21.3-17.8h12c-.2-5-2.2-7-5.9-7-3.8 0-5.7 2.6-6.1 7z"/><path d="m251 124c2.1-2.2 5-3.1 8.3-3.1 9.2 0 15.1 6 15.1 17.5v4.6c0 10.5-5 17.6-15.1 17.6-3.8 0-6.4-1-8.3-3v2.3h-9.3v-52.9h9.3zm13.6 18.6v-4c0-6.1-2-9.5-6.8-9.5s-6.8 3.4-6.8 9.5v4c0 5.5 1.7 9.6 6.8 9.6 5.3.1 6.8-4.1 6.8-9.6z"/><path d="m285.5 159.9v-52.9h18.8c11.9 0 20.3 6.1 20.3 23v6.9c0 16.8-8.3 23-20.3 23zm28.3-23v-6.9c0-9.1-2.4-13.9-9.6-13.9h-8v34.7h8c7.2 0 9.6-4.8 9.6-13.9z"/><path d="m346.3 159.9h-10.7v-52.9h10.7z"/><path d="m397.2 107v52.8h-9l-20.6-32.7v32.7h-10.2v-52.8h8.9l20.7 33.1v-33.1z"/><path d="m426.7 160.5c-11.9 0-20.2-7.2-20.2-23.3v-7.5c0-16.3 8.3-23.3 20.2-23.3s20.3 7 20.3 23.3v7.5c0 16.1-8.4 23.3-20.3 23.3zm-9.5-23.3c0 10.1 3.3 14.3 9.5 14.3s9.6-4.2 9.6-14.3v-7.5c0-10.1-3.4-14.3-9.6-14.3s-9.5 4.2-9.5 14.3z"/><path d="m474.4 144.3c1.2 1.6 3 2.7 5.4 2.7 4.3 0 6.5-2.4 6.5-9.7v-22.3h6.2v22.3c0 10.9-4.7 15.1-12.5 15.1-4.7 0-8.6-1.7-10.9-5.1z"/><path d="m502.6 151.9 12.9-37h5.9l12.9 37h-6.6l-2.5-7.7h-13.3l-2.5 7.7zm10.9-13h9.9l-4.9-15z"/><path d="m551.3 138.4v13.5h-6.2v-37h12.6c8.5 0 13.6 4.1 13.6 11.7 0 7.5-5 11.8-13.6 11.8zm5.8-5.3c5.7 0 8-2.2 8-6.4 0-4-2.4-6.3-8-6.3h-5.7v12.7z"/><path d="m575.4 151.9 12.9-37h5.9l12.9 37h-6.6l-2.5-7.7h-13.3l-2.5 7.7zm10.9-13h9.9l-4.9-15z"/><path d="m645 115v37h-5.5l-15.1-25.1v25.1h-6v-37h5.4l15.2 25.5v-25.5z"/></g></svg>