<svg enable-background="new 0 0 714 48" viewBox="0 0 714 48" xmlns="http://www.w3.org/2000/svg"><g fill="#dbe0ea"><path d="m699.9 8.7c1.2-.8 2.4-1.6 3.7-2.5.2-.2.4-.3.7-.3.4 0 1.1.4 1.5.5 2.8 1 5.5 2 8.3 3-2.4.9-4.7 1.9-7.1 2.8-.2.1-.6.2-.7.3-.2.3-.1 1.2-.1 1.5-.1 1.3-.2 2.5-.2 3.8-1.4-1.9-2.8-3.7-4.1-5.6-.5-.7-.9-.6-1.8-.7-1.2-.2-2.3-.3-3.5-.5 1-.7 2.2-1.5 3.3-2.3zm-36.1 17.6c3-1.9 6-3.8 9-5.7-3.9 5.9-7.7 11.8-11.6 17.7-.5.8-1.1 1.7-1.6 2.5 1.3-4.8 2.8-9.7 4.2-14.5zm10.4-6.9c1.5-.9 3-1.8 4.4-2.8.3-.2.8-.7 1.2-.6s1.2 1 1.6 1.2c1.6 1.3 3.2 2.5 4.8 3.8.4.3.4.2.3.7-.2.8-.6 1.6-.9 2.3-.7 1.8-1.3 3.6-2 5.4-.2-1.4-.4-2.8-.5-4.2-.1-.9-.2-1.8-.3-2.7 0-.3 0-.6-.2-.7-.3-.3-1.2-.3-1.6-.5-1-.3-1.9-.5-2.9-.8-1.3-.3-2.6-.7-3.9-1.1zm-43.2-19.4c8.2 1.9 16.4 4 24.5 6 2 .5 3.9 1 5.9 1.4.6.2 1.3.4 2 .5 1.3.2 2.7.1 4 .1 2.6.1 5.2.2 7.9.3 4.3.1 8.6.3 12.9.4-6.4 4-12.9 8-19.4 11.9-1.9 1.2-3.8 2.4-5.8 3.6-.6-1.2-1.1-2.4-1.7-3.5-.4-.9-.8-1.7-1.2-2.6-.2-.5-.4-1.2-.8-1.6-.2-.3-.6-.4-.9-.6-1-.6-1.9-1.1-2.9-1.7-6.4-3.7-12.8-7.4-19.2-11.1-1.7-1-3.5-2.1-5.3-3.1zm70.5 6.3c-4.7 3.1-9.3 6.2-14 9.4-.5.3-.9.7-1.5 1-.4.2-.3.2-.7.1.1 0 .2.1.3.1-.3.2-.7.6-1 .6-.3-.1-.9-.7-1.2-.9-.9-.7-1.7-1.4-2.6-2.1 2.5-1.6 5.1-3.1 7.6-4.7.9-.6 1.9-1.4 2.9-1.6 1.8-.4 3.6-.6 5.3-.9 1.8-.4 3.4-.7 4.9-1z"/><path d="m624.6 46.1c.3.2.7.5.7.9-.1-.1-.3-.2-.5-.2-.4-.1-.1-.1-.4 0-.5.2-.6.4-1.2.4-1.4-.2-2.7-1-4.1-1.3-.8-.1-1.6 0-2.5 0-.8-.1-1.6-.2-2.4-.5-2-.7-3-2.8-1.3-4.5 1.5-1.5 3.5-1 5.2-2 1-.6 1.9-1.4 2.9-2.1.5-.4 1-.7 1.6-.8.5-.1 1.2-.4 1.7-.3-.3.2-.7.4-.9.7 0 .1.1.4 0 .6-.1.4-.4.6-.7.9-.6.5-2.7 1.9-1.8 2.9-.2.1-.4.1-.6.1 1 .7 3-.2 4.1-.3.4-.1.9-.2 1.3-.1.2.1.4.3.6.3.5.1 1.3-.2 1.6.4-.4 0-1.2 0-1.5.2-.1.1-.1.5-.2.6-.2.3-.6.4-.9.4-.7.2-1.5.3-2.3.4-.7.1-2 .1-2.4.8h.7c-.4 1 .5 1.4 1.3 1.5 1 .1 1.7.2 2 1zm-27.1-9.2c.2.1.7.4.8.6-.2-.1-.6-.3-.8-.3-.4 0-.6.3-1.1.2-1.2-.2-2.4-.7-3.6-1.1-1.5-.4-3.1-.3-4.7-.7-1.1-.3-4.3-1.4-2.7-3 1.3-1.3 3.4-.6 5-1 2-.6 3.7-1.9 5.9-1.6-.2.1-.6.2-.8.4.8 1-3.3 1.6-2 2.7-.2 0-.4 0-.6 0 1.1.6 2.9.2 4.1.2.7 0 1.1.2 1.8.4.5.1 1.2 0 1.6.4-.3 0-1.2-.2-1.4 0 0 0 0 .3-.1.4-.2.2-.5.2-.8.2-.7.1-1.5 0-2.2.1-.6 0-1.9-.2-2.3.3.2 0 .5 0 .7.1-.4.7.9 1 1.4 1.1.6-.1 1.3 0 1.8.6z"/><path d="m559.6 46.1c.3.2.7.5.7.9-.1-.1-.3-.2-.5-.2-.4-.1-.1-.1-.4 0-.5.2-.6.4-1.2.4-1.4-.2-2.7-1-4.1-1.3-.8-.1-1.6 0-2.5 0-.8-.1-1.6-.2-2.4-.5-2-.7-3-2.8-1.3-4.5 1.5-1.5 3.5-1 5.2-2 1-.6 1.9-1.4 2.9-2.1.5-.4 1-.7 1.6-.8.5-.1 1.2-.4 1.7-.3-.3.2-.7.4-.9.7 0 .1.1.4 0 .6-.1.4-.4.6-.7.9-.6.5-2.7 1.9-1.8 2.9-.2.1-.4.1-.6.1 1 .7 3-.2 4.1-.3.4-.1.9-.2 1.3-.1.2.1.4.3.6.3.5.1 1.3-.2 1.6.4-.4 0-1.2 0-1.5.2-.1.1-.1.5-.2.6-.2.3-.6.4-.9.4-.7.2-1.5.3-2.3.4-.7.1-2 .1-2.4.8h.7c-.4 1 .5 1.4 1.3 1.5 1 .1 1.7.2 2 1zm-27.1-9.2c.2.1.7.4.8.6-.2-.1-.6-.3-.8-.3-.4 0-.6.3-1.1.2-1.2-.2-2.4-.7-3.6-1.1-1.5-.4-3.1-.3-4.7-.7-1.1-.3-4.3-1.4-2.7-3 1.3-1.3 3.4-.6 5-1 2-.6 3.7-1.9 5.9-1.6-.2.1-.6.2-.8.4.8 1-3.3 1.6-2 2.7-.2 0-.4 0-.6 0 1.1.6 2.9.2 4.1.2.7 0 1.1.2 1.8.4.5.1 1.2 0 1.6.4-.3 0-1.2-.2-1.4 0 0 0 0 .3-.1.4-.2.2-.5.2-.8.2-.7.1-1.5 0-2.2.1-.6 0-1.9-.2-2.3.3.2 0 .5 0 .7.1-.4.7.9 1 1.4 1.1.6-.1 1.3 0 1.8.6z"/><path d="m494.6 46.1c.3.2.7.5.7.9-.1-.1-.3-.2-.5-.2-.4-.1-.1-.1-.4 0-.5.2-.6.4-1.2.4-1.4-.2-2.7-1-4.1-1.3-.8-.1-1.6 0-2.5 0-.8-.1-1.6-.2-2.4-.5-2-.7-3-2.8-1.3-4.5 1.5-1.5 3.5-1 5.2-2 1-.6 1.9-1.4 2.9-2.1.5-.4 1-.7 1.6-.8.5-.1 1.2-.4 1.7-.3-.3.2-.7.4-.9.7 0 .1.1.4 0 .6-.1.4-.4.6-.7.9-.6.5-2.7 1.9-1.8 2.9-.2.1-.4.1-.6.1 1 .7 3-.2 4.1-.3.4-.1.9-.2 1.3-.1.2.1.4.3.6.3.5.1 1.3-.2 1.6.4-.4 0-1.2 0-1.5.2-.1.1-.1.5-.2.6-.2.3-.6.4-.9.4-.7.2-1.5.3-2.3.4-.7.1-2 .1-2.4.8h.7c-.4 1 .5 1.4 1.3 1.5 1 .1 1.7.2 2 1zm-27.1-9.2c.2.1.7.4.8.6-.2-.1-.6-.3-.8-.3-.4 0-.6.3-1.1.2-1.2-.2-2.4-.7-3.6-1.1-1.5-.4-3.1-.3-4.7-.7-1.1-.3-4.3-1.4-2.7-3 1.3-1.3 3.4-.6 5-1 2-.6 3.7-1.9 5.9-1.6-.2.1-.6.2-.8.4.8 1-3.3 1.6-2 2.7-.2 0-.4 0-.6 0 1.1.6 2.9.2 4.1.2.7 0 1.1.2 1.8.4.5.1 1.2 0 1.6.4-.3 0-1.2-.2-1.4 0 0 0 0 .3-.1.4-.2.2-.5.2-.8.2-.7.1-1.5 0-2.2.1-.6 0-1.9-.2-2.3.3.2 0 .5 0 .7.1-.4.8 1 1 1.4 1.1.6-.1 1.3 0 1.8.6z"/><path d="m429.6 46.1c.3.2.7.5.7.9-.1-.1-.3-.2-.5-.2-.4-.1-.1-.1-.4 0-.5.2-.6.4-1.2.4-1.4-.2-2.7-1-4.1-1.3-.8-.1-1.6 0-2.5 0-.8-.1-1.6-.2-2.4-.5-2-.7-3-2.8-1.3-4.5 1.5-1.5 3.5-1 5.2-2 1-.6 1.9-1.4 2.9-2.1.5-.4 1-.7 1.6-.8.5-.1 1.2-.4 1.7-.3-.3.2-.7.4-.9.7 0 .1.1.4 0 .6-.1.4-.4.6-.7.9-.6.5-2.7 1.9-1.8 2.9-.2.1-.4.1-.6.1 1 .7 3-.2 4.1-.3.4-.1.9-.2 1.3-.1.2.1.4.3.6.3.5.1 1.3-.2 1.6.4-.4 0-1.2 0-1.5.2-.1.1-.1.5-.2.6-.2.3-.6.4-.9.4-.7.2-1.5.3-2.3.4-.7.1-2 .1-2.4.8h.7c-.4 1 .5 1.4 1.3 1.5 1 .1 1.7.2 2 1zm-27.1-9.2c.2.1.7.4.8.6-.2-.1-.6-.3-.8-.3-.4 0-.6.3-1.1.2-1.2-.2-2.4-.7-3.6-1.1-1.5-.4-3.1-.3-4.7-.7-1.1-.3-4.3-1.4-2.7-3 1.3-1.3 3.4-.6 5-1 2-.6 3.7-1.9 5.9-1.6-.2.1-.6.2-.8.4.8 1-3.3 1.6-2 2.7-.2 0-.4 0-.6 0 1.1.6 2.9.2 4.1.2.7 0 1.1.2 1.8.4.5.1 1.2 0 1.6.4-.3 0-1.2-.2-1.4 0 0 0 0 .3-.1.4-.2.2-.5.2-.8.2-.7.1-1.5 0-2.2.1-.6 0-1.9-.2-2.3.3.2 0 .5 0 .7.1-.4.8 1 1 1.4 1.1.6-.1 1.3 0 1.8.6z"/><path d="m364.6 46.1c.3.2.7.5.7.9-.1-.1-.3-.2-.5-.2-.4-.1-.1-.1-.4 0-.5.2-.6.4-1.2.4-1.4-.2-2.7-1-4.1-1.3-.8-.1-1.6 0-2.5 0-.8-.1-1.6-.2-2.4-.5-2-.7-3-2.8-1.3-4.5 1.5-1.5 3.5-1 5.2-2 1-.6 1.9-1.4 2.9-2.1.5-.4 1-.7 1.6-.8.5-.1 1.2-.4 1.7-.3-.3.2-.7.4-.9.7 0 .1.1.4 0 .6-.1.4-.4.6-.7.9-.6.5-2.7 1.9-1.8 2.9-.2.1-.4.1-.6.1 1 .7 3-.2 4.1-.3.4-.1.9-.2 1.3-.1.2.1.4.3.6.3.5.1 1.3-.2 1.6.4-.4 0-1.2 0-1.5.2-.1.1-.1.5-.2.6-.2.3-.6.4-.9.4-.7.2-1.5.3-2.3.4-.7.1-2 .1-2.4.8h.7c-.4 1 .5 1.4 1.3 1.5 1 .1 1.7.2 2 1zm-27.1-9.2c.2.1.7.4.8.6-.2-.1-.6-.3-.8-.3-.4 0-.6.3-1.1.2-1.2-.2-2.4-.7-3.6-1.1-1.5-.4-3.1-.3-4.7-.7-1.1-.3-4.3-1.4-2.7-3 1.3-1.3 3.4-.6 5-1 2-.6 3.7-1.9 5.9-1.6-.2.1-.6.2-.8.4.8 1-3.3 1.6-2 2.7-.2 0-.4 0-.6 0 1.1.6 2.9.2 4.1.2.7 0 1.1.2 1.8.4.5.1 1.2 0 1.6.4-.3 0-1.2-.2-1.4 0 0 0 0 .3-.1.4-.2.2-.5.2-.8.2-.7.1-1.5 0-2.2.1-.6 0-1.9-.2-2.3.3.2 0 .5 0 .7.1-.4.8 1 1 1.4 1.1.6-.1 1.3 0 1.8.6z"/><path d="m299.6 46.1c.3.2.7.5.7.9-.1-.1-.3-.2-.5-.2-.4-.1-.1-.1-.4 0-.5.2-.6.4-1.2.4-1.4-.2-2.7-1-4.1-1.3-.8-.1-1.6 0-2.5 0-.8-.1-1.6-.2-2.4-.5-2-.7-3-2.8-1.3-4.5 1.5-1.5 3.5-1 5.2-2 1-.6 1.9-1.4 2.9-2.1.5-.4 1-.7 1.6-.8.5-.1 1.2-.4 1.7-.3-.3.2-.7.4-.9.7 0 .1.1.4 0 .6-.1.4-.4.6-.7.9-.6.5-2.7 1.9-1.8 2.9-.2.1-.4.1-.6.1 1 .7 3-.2 4.1-.3.4-.1.9-.2 1.3-.1.2.1.4.3.6.3.5.1 1.3-.2 1.6.4-.4 0-1.2 0-1.5.2-.1.1-.1.5-.2.6-.2.3-.6.4-.9.4-.7.2-1.5.3-2.3.4-.7.1-2 .1-2.4.8h.7c-.4 1 .5 1.4 1.3 1.5 1 .1 1.7.2 2 1zm-27.1-9.2c.2.1.7.4.8.6-.2-.1-.6-.3-.8-.3-.4 0-.6.3-1.1.2-1.2-.2-2.4-.7-3.6-1.1-1.5-.4-3.1-.3-4.7-.7-1.1-.3-4.3-1.4-2.7-3 1.3-1.3 3.4-.6 5-1 2-.6 3.7-1.9 5.9-1.6-.2.1-.6.2-.8.4.8 1-3.3 1.6-2 2.7-.2 0-.4 0-.6 0 1.1.6 2.9.2 4.1.2.7 0 1.1.2 1.8.4.5.1 1.2 0 1.6.4-.3 0-1.2-.2-1.4 0 0 0 0 .3-.1.4-.2.2-.5.2-.8.2-.7.1-1.5 0-2.2.1-.6 0-1.9-.2-2.3.3.2 0 .5 0 .7.1-.4.8 1 1 1.4 1.1.6-.1 1.3 0 1.8.6z"/><path d="m234.6 46.1c.3.2.7.5.7.9-.1-.1-.3-.2-.5-.2-.4-.1-.1-.1-.4 0-.5.2-.6.4-1.2.4-1.4-.2-2.7-1-4.1-1.3-.8-.1-1.6 0-2.5 0-.8-.1-1.6-.2-2.4-.5-2-.7-3-2.8-1.3-4.5 1.5-1.5 3.5-1 5.2-2 1-.6 1.9-1.4 2.9-2.1.5-.4 1-.7 1.6-.8.5-.1 1.2-.4 1.7-.3-.3.2-.7.4-.9.7 0 .1.1.4 0 .6-.1.4-.4.6-.7.9-.6.5-2.7 1.9-1.8 2.9-.2.1-.4.1-.6.1 1 .7 3-.2 4.1-.3.4-.1.9-.2 1.3-.1.2.1.4.3.6.3.5.1 1.3-.2 1.6.4-.4 0-1.2 0-1.5.2-.1.1-.1.5-.2.6-.2.3-.6.4-.9.4-.7.2-1.5.3-2.3.4-.7.1-2 .1-2.4.8h.7c-.4 1 .5 1.4 1.3 1.5 1 .1 1.7.2 2 1zm-27.1-9.2c.2.1.7.4.8.6-.2-.1-.6-.3-.8-.3-.4 0-.6.3-1.1.2-1.2-.2-2.4-.7-3.6-1.1-1.5-.4-3.1-.3-4.7-.7-1.1-.3-4.3-1.4-2.7-3 1.3-1.3 3.4-.6 5-1 2-.6 3.7-1.9 5.9-1.6-.2.1-.6.2-.8.4.8 1-3.3 1.6-2 2.7-.2 0-.4 0-.6 0 1.1.6 2.9.2 4.1.2.7 0 1.1.2 1.8.4.5.1 1.2 0 1.6.4-.3 0-1.2-.2-1.4 0 0 0 0 .3-.1.4-.2.2-.5.2-.8.2-.7.1-1.5 0-2.2.1-.6 0-1.9-.2-2.3.3.2 0 .5 0 .7.1-.4.7.9 1 1.4 1.1.6-.1 1.3 0 1.8.6z"/><path d="m169.6 46.1c.3.2.7.5.7.9-.1-.1-.3-.2-.5-.2-.4-.1-.1-.1-.4 0-.5.2-.6.4-1.2.4-1.4-.2-2.7-1-4.1-1.3-.8-.1-1.6 0-2.5 0-.8-.1-1.6-.2-2.4-.5-2-.7-3-2.8-1.3-4.5 1.5-1.5 3.5-1 5.2-2 1-.6 1.9-1.4 2.9-2.1.5-.4 1-.7 1.6-.8.5-.1 1.2-.4 1.7-.3-.3.2-.7.4-.9.7 0 .1.1.4 0 .6-.1.4-.4.6-.7.9-.6.5-2.7 1.9-1.8 2.9-.2.1-.4.1-.6.1 1 .7 3-.2 4.1-.3.4-.1.9-.2 1.3-.1.2.1.4.3.6.3.5.1 1.3-.2 1.6.4-.4 0-1.2 0-1.5.2-.1.1-.1.5-.2.6-.2.3-.6.4-.9.4-.7.2-1.5.3-2.3.4-.7.1-2 .1-2.4.8h.7c-.4 1 .5 1.4 1.3 1.5 1 .1 1.7.2 2 1zm-27.1-9.2c.2.1.7.4.8.6-.2-.1-.6-.3-.8-.3-.4 0-.6.3-1.1.2-1.2-.2-2.4-.7-3.6-1.1-1.5-.4-3.1-.3-4.7-.7-1.1-.3-4.3-1.4-2.7-3 1.3-1.3 3.4-.6 5-1 2-.6 3.7-1.9 5.9-1.6-.2.1-.6.2-.8.4.8 1-3.3 1.6-2 2.7-.2 0-.4 0-.6 0 1.1.6 2.9.2 4.1.2.7 0 1.1.2 1.8.4.5.1 1.2 0 1.6.4-.3 0-1.2-.2-1.4 0 0 0 0 .3-.1.4-.2.2-.5.2-.8.2-.7.1-1.5 0-2.2.1-.6 0-1.9-.2-2.3.3.2 0 .5 0 .7.1-.4.7.9 1 1.4 1.1.6-.1 1.3 0 1.8.6z"/><path d="m104.6 46.1c.3.2.7.5.7.9-.1-.1-.3-.2-.5-.2-.4-.1-.1-.1-.4 0-.5.2-.6.4-1.2.4-1.4-.2-2.7-1-4.1-1.3-.8-.1-1.6 0-2.5 0-.8-.1-1.6-.2-2.4-.5-2-.7-3-2.8-1.3-4.5 1.5-1.5 3.5-1 5.2-2 1-.6 1.9-1.4 2.9-2.1.5-.4 1-.7 1.6-.8.5-.1 1.2-.4 1.7-.3-.3.2-.7.4-.9.7 0 .1.1.4 0 .6-.1.4-.4.6-.7.9-.6.5-2.7 1.9-1.8 2.9-.2.1-.4.1-.6.1 1 .7 3-.2 4.1-.3.4-.1.9-.2 1.3-.1.2.1.4.3.6.3.5.1 1.3-.2 1.6.4-.4 0-1.2 0-1.5.2-.1.1-.1.5-.2.6-.2.3-.6.4-.9.4-.7.2-1.5.3-2.3.4-.7.1-2 .1-2.4.8h.7c-.4 1 .5 1.4 1.3 1.5 1 .1 1.7.2 2 1zm-27.1-9.2c.2.1.7.4.8.6-.2-.1-.6-.3-.8-.3-.4 0-.6.3-1.1.2-1.2-.2-2.4-.7-3.6-1.1-1.5-.4-3.1-.3-4.7-.7-1.1-.3-4.3-1.4-2.7-3 1.3-1.3 3.4-.6 5-1 2-.6 3.7-1.9 5.9-1.6-.2.1-.6.2-.8.4.8 1-3.3 1.6-2 2.7-.2 0-.4 0-.6 0 1.1.6 2.9.2 4.1.2.7 0 1.1.2 1.8.4.5.1 1.2 0 1.6.4-.3 0-1.2-.2-1.4 0 0 0 0 .3-.1.4-.2.2-.5.2-.8.2-.7.1-1.5 0-2.2.1-.6 0-1.9-.2-2.3.3.2 0 .5 0 .7.1-.4.7.9 1 1.4 1.1.6-.1 1.3 0 1.8.6z"/><path d="m39.6 46.1c.3.2.7.5.7.9-.1-.1-.3-.2-.5-.2-.4-.1-.1-.1-.4 0-.5.2-.6.4-1.2.4-1.4-.2-2.7-1-4.1-1.3-.8-.1-1.6 0-2.5 0-.8-.1-1.6-.2-2.4-.5-2-.7-3-2.8-1.3-4.5 1.5-1.5 3.5-1 5.2-2 1-.6 1.9-1.4 2.9-2.1.5-.4 1-.7 1.6-.8.5-.1 1.2-.4 1.7-.3-.3.2-.7.4-.9.7 0 .1.1.4 0 .6-.1.4-.4.6-.7.9-.6.5-2.7 1.9-1.8 2.9-.2.1-.4.1-.6.1 1 .7 3-.2 4.1-.3.4-.1.9-.2 1.3-.1.2.1.4.3.6.3.5.1 1.3-.2 1.6.4-.4 0-1.2 0-1.5.2-.1.1-.1.5-.2.6-.2.3-.6.4-.9.4-.7.2-1.5.3-2.3.4-.7.1-2 .1-2.4.8h.7c-.4 1 .5 1.4 1.3 1.5 1 .1 1.7.2 2 1zm-27.1-9.2c.2.1.7.4.8.6-.2-.1-.6-.3-.8-.3-.4 0-.6.3-1.1.2-1.2-.2-2.4-.7-3.6-1.1-1.5-.4-3.1-.3-4.7-.7-1.1-.3-4.3-1.4-2.7-3 1.3-1.3 3.4-.6 5-1 2-.6 3.7-1.9 5.9-1.6-.2.1-.6.2-.8.4.8 1-3.3 1.6-2 2.7-.2 0-.4 0-.6 0 1.1.6 2.9.2 4.1.2.7 0 1.1.2 1.8.4.5.1 1.2 0 1.6.4-.3 0-1.2-.2-1.4 0 0 0 0 .3-.1.4-.2.2-.5.2-.8.2-.7.1-1.5 0-2.2.1-.6 0-1.9-.2-2.3.3.2 0 .5 0 .7.1-.4.7.9 1 1.4 1.1.6-.1 1.3 0 1.8.6z"/></g></svg>