<svg enable-background="new 0 0 19 16" viewBox="0 0 19 16" xmlns="http://www.w3.org/2000/svg"><path d="m17.7 3.3c.2-.1.5-.4.7-.3-.4.5-.3.3-.2.8.1.4-.1.7-.3 1.1-.6 1.2-1.4 2-1.8 3.3-.3 1.3-1.2 3.4-2.8 3.1-.9-.1-1.5-1-1.7-1.9s.1-1.8 0-2.7-.6-1.7-.9-2.6c-.3-.7-.5-1.8-.2-2.6.1.2.2.6.3.7.3.2.5.1.8.6s.8 2.4 1.7 1.9v.5c.6-.6.4-2 .5-2.8 0-.3 0-.6.1-.8s.3-.3.4-.5c.2-.3.1-.9.5-1-.1.3-.2.8-.1 1.1 0 .1.3.2.4.2.1.2.1.4.1.7 0 .9-.6 2.8-.1 3.4 0-.2.1-.3.1-.5.5.4 1 0 1.2-.5.5-.6.6-1.1 1.3-1.2zm-11.4 5.5c.1-.2.3-.4.5-.4 0 .1-.2.4-.2.4 0 .1.2.1.2.2.1.4.1.6 0 1-.2 1-.5 1.8-.5 2.9 0 1-.1 2.6-1.2 2.9-1.9.6-2.1-1.8-2.5-2.9-.6-1.2-2.3-2.1-2.2-3.7.4.6.7.3 1.2.8.3.3 1.2 1.5 1.7.9 0 .1.1.2.1.4.4-.6-.2-1.7-.3-2.3-.1-.5 0-.7.1-1.1 0-.3-.2-.7.2-.9 0 .2 0 .7.2.8.1.2.4.1.6.6.2.6.1 2.2.8 2.6 0-.1 0-.3 0-.4 1 .3.6-1.5 1.3-1.8z" fill="#a51d3c"/></svg>